<?xml version="1.0" encoding="utf-8"?>
<!-- Generator: Adobe Illustrator 27.5.0, SVG Export Plug-In . SVG Version: 6.00 Build 0)  -->
<svg version="1.1" id="Layer_1" xmlns="http://www.w3.org/2000/svg" xmlns:xlink="http://www.w3.org/1999/xlink" x="0px" y="0px"
	 viewBox="0 0 3473.305 2000" style="enable-background:new 0 0 3473.305 2000;" xml:space="preserve">
<rect y="0" style="fill:#FFFFFF;" width="3473.306" height="2000"/>
<g>
	<path style="opacity:0.7;fill:#ACD9F2;" d="M326.351,1834.598c-204.929-201.443-187.517-418.922-64.94-653.211
		c91.434-174.764-63.077-375.603,187.218-630.485c183.288-186.649,613.279-288.25,987.164-153.652
		c186.954,67.303,811.725-526.262,1378.659,0c324.877,301.569,358.64,658.379,294.773,768.062
		c-116.338,199.796,300.314,309.497,48.957,669.287C2368.285,1834.598,326.351,1834.598,326.351,1834.598z"/>
	<path style="opacity:0.8;fill:#F0FBFF;" d="M1061.302,476.667c-4.155-13.307-20.337-23.234-39.681-23.234
		c-3.551,0-6.996,0.336-10.279,0.964c-9.548-15.023-30.268-25.434-54.294-25.434c-6.212,0-12.203,0.696-17.837,1.987
		c-12.935-15.761-36.435-26.299-63.281-26.299c-31.94,0-59.145,14.917-69.453,35.799c-7.296-2.993-15.697-4.706-24.644-4.706
		c-27.997,0-50.692,16.701-50.692,37.302c0,1.221,0.086,2.428,0.241,3.62H1061.302z"/>
	<path style="opacity:0.8;fill:#F0FBFF;" d="M471.072,1234.255c-4.373-14.005-21.403-24.453-41.762-24.453
		c-3.738,0-7.363,0.354-10.819,1.016c-10.048-15.812-31.854-26.768-57.141-26.768c-6.538,0-12.843,0.732-18.772,2.091
		c-13.613-16.587-38.345-27.678-66.599-27.678c-1.355,0-2.698,0.034-4.036,0.084c-3.088,7.663-6.575,15.276-10.532,22.84
		c-9.27,17.719-17.934,35.341-25.951,52.868H471.072z"/>
	<path style="fill:#F7CC7F;" d="M3296.098,1846.89H177.208c-7.109,0-12.872-5.763-12.872-12.872l0,0
		c0-7.109,5.763-12.872,12.872-12.872h3118.89c7.109,0,12.872,5.763,12.872,12.872l0,0
		C3308.97,1841.127,3303.207,1846.89,3296.098,1846.89z"/>
	<g>
		<rect x="432.483" y="681.851" style="fill:#7BD1C0;" width="1582.668" height="1101.912"/>
		<path style="fill:#E8D1C3;" d="M2015.151,704.452h-16.147h-96.898h-48.449h-96.898h-48.449h-96.899h-48.449h-96.898h-48.449
			h-96.899h-48.449h-11.544h-85.354h-48.45h-96.898h-48.449h-96.899h-48.449h-96.898h-48.449h-96.899h-48.449H448.63h-16.147
			v143.025c9.353-3.097,16.147-11.811,16.147-22.202v9.932c0,25.944,21.032,46.976,46.977,46.976h2.946
			c25.944,0,46.976-21.032,46.976-46.976v-9.932c0,12.972,10.516,23.488,23.488,23.488h1.473c12.972,0,23.488-10.516,23.488-23.488
			v9.932c0,25.944,21.032,46.976,46.977,46.976h2.946c25.944,0,46.977-21.032,46.977-46.976v-9.932
			c0,12.972,10.516,23.488,23.488,23.488h1.473c12.972,0,23.488-10.516,23.488-23.488v9.932c0,25.944,21.032,46.976,46.976,46.976
			h2.946c25.944,0,46.976-21.032,46.976-46.976v-9.932c0,12.972,10.516,23.488,23.489,23.488h1.473
			c12.972,0,23.488-10.516,23.488-23.488v9.932c0,25.944,21.032,46.976,46.977,46.976h2.946c25.944,0,46.977-21.032,46.977-46.976
			v-9.932c0,12.972,10.516,23.488,23.488,23.488h1.473c12.972,0,23.488-10.516,23.488-23.488v9.932
			c0,25.944,21.032,46.976,46.977,46.976h2.945c25.945,0,46.977-21.032,46.977-46.976v-9.932c0,12.972,10.516,23.488,23.488,23.488
			h1.474c12.972,0,23.488-10.516,23.488-23.488v9.932c0,25.944,21.032,46.976,46.976,46.976h2.946
			c25.944,0,46.976-21.032,46.976-46.976v-3.826c6.228,9.273,15.64,17.383,23.489,17.383h1.473
			c12.972,0,23.487-10.516,23.487-23.488v9.932c0,25.944,21.032,46.976,46.977,46.976h2.946c25.944,0,46.976-21.032,46.976-46.976
			v-9.932c0,12.972,10.516,23.488,23.488,23.488h1.473c12.973,0,23.489-10.516,23.489-23.488v9.932
			c0,25.944,21.032,46.976,46.976,46.976h2.946c25.944,0,46.976-21.032,46.976-46.976v-9.932c0,12.972,10.517,23.488,23.489,23.488
			h1.473c12.972,0,23.487-10.516,23.487-23.488v9.932c0,25.944,21.032,46.976,46.977,46.976h2.946
			c25.944,0,46.976-21.032,46.976-46.976v-9.932c0,12.972,10.516,23.488,23.488,23.488h1.473c12.973,0,23.488-10.516,23.488-23.488
			v9.932c0,25.944,21.032,46.976,46.977,46.976h2.946c25.944,0,46.976-21.032,46.976-46.976v-9.932
			c0,12.972,10.517,23.488,23.488,23.488h1.473c12.973,0,23.488-10.516,23.488-23.488v9.932c0,25.944,21.032,46.976,46.977,46.976
			h2.945c25.945,0,46.977-21.032,46.977-46.976v-9.932c0,10.391,6.794,19.106,16.147,22.202V704.452z"/>
		<rect x="521.827" y="988.156" style="fill:#184655;" width="399.921" height="816.862"/>
		
			<rect x="338.884" y="1222.153" transform="matrix(-1.836970e-16 1 -1 -1.836970e-16 2118.374 674.7988)" style="fill:#50BFA5;" width="765.808" height="348.867"/>
		<g>
			<path style="fill:#FFFFFF;" d="M808.144,1211.657H635.432c-3.187,0-5.77-2.583-5.77-5.771v-44.62c0-3.187,2.583-5.77,5.77-5.77
				h172.711c3.186,0,5.77,2.583,5.77,5.77v44.62C813.914,1209.074,811.33,1211.657,808.144,1211.657z"/>
			<g>
				<path style="fill:#50BFA5;" d="M645.664,1183.557c0-26.794,39.749-26.794,39.749,0
					C685.413,1210.404,645.664,1210.404,645.664,1183.557z M675.279,1183.557c0-13.951-19.428-13.951-19.428,0
					C655.851,1197.616,675.279,1197.616,675.279,1183.557z"/>
				<path style="fill:#50BFA5;" d="M692.909,1202.877c0-12.901,0-25.798,0-38.753c5.589,0,11.35,0,17.053,0
					c18.544,0.054,18.544,28.845,0,28.845h-7.145v9.908C699.495,1202.877,696.177,1202.877,692.909,1202.877z M709.903,1172.981
					c-2.322-0.054-4.814,0-7.086,0c0,3.155,0,7.915,0,11.071h7.086C715.331,1184.053,715.664,1173.035,709.903,1172.981z"/>
				<path style="fill:#50BFA5;" d="M755.544,1172.981c-5.756,0-8.637,0-14.339,0v5.481h13.176c0,2.935,0,5.869,0,8.804h-13.176
					c0,2.268,0,4.48,0,6.807c5.703,0,9.024,0,14.835,0c0,2.88,0,5.869,0,8.804c-9.079,0-15.718,0-24.689,0
					c0-12.955,0-25.91,0-38.753c8.97,0,15.114,0,24.193,0C755.544,1167.004,755.544,1169.993,755.544,1172.981z"/>
				<path style="fill:#50BFA5;" d="M774.828,1183.832v19.045c-3.43,0-6.865,0-10.241,0v-38.92h3.597l19.6,19.158v-18.991
					c3.376,0,6.753,0,10.128,0v38.807h-3.543L774.828,1183.832z"/>
			</g>
		</g>
		<rect x="860.099" y="1295.891" style="fill:#184655;" width="12.422" height="218.941"/>
		<g>
			<g>
				<rect x="1004.944" y="977.313" style="fill:#FFFFFF;" width="939.702" height="549.99"/>
			</g>
		</g>
		<g>
			
				<rect x="1209.252" y="802.778" transform="matrix(-1.836970e-16 1 -1 -1.836970e-16 2711.0278 -216.8237)" style="fill:#9EE5FF;" width="509.347" height="888.648"/>
		</g>
		<g>
			<g>
				<path style="fill:#FFFFFF;" d="M1442.575,813.664h-1.474c-12.972,0-23.488-10.516-23.488-23.488V669.353h48.449v120.823
					C1466.063,803.148,1455.547,813.664,1442.575,813.664z"/>
				<path style="fill:#FFFFFF;" d="M1297.228,813.664h-1.473c-12.972,0-23.488-10.516-23.488-23.488V669.353h48.449v120.823
					C1320.715,803.148,1310.199,813.664,1297.228,813.664z"/>
				<path style="fill:#FFFFFF;" d="M1151.879,813.664h-1.473c-12.972,0-23.488-10.516-23.488-23.488V669.353h48.449v120.823
					C1175.368,803.148,1164.852,813.664,1151.879,813.664z"/>
				<path style="fill:#FFFFFF;" d="M1006.532,813.664h-1.473c-12.972,0-23.488-10.516-23.488-23.488V669.353h48.449v120.823
					C1030.02,803.148,1019.504,813.664,1006.532,813.664z"/>
				<path style="fill:#FFFFFF;" d="M861.185,813.664h-1.473c-12.972,0-23.488-10.516-23.488-23.488V669.353h48.449v120.823
					C884.672,803.148,874.156,813.664,861.185,813.664z"/>
				<path style="fill:#FFFFFF;" d="M2023.965,813.664h-1.473c-12.972,0-23.488-10.516-23.488-23.488V669.353h48.449v120.823
					C2047.453,803.148,2036.938,813.664,2023.965,813.664z"/>
				<path style="fill:#FFFFFF;" d="M1878.617,813.664h-1.473c-12.973,0-23.488-10.516-23.488-23.488V669.353h48.449v120.823
					C1902.105,803.148,1891.59,813.664,1878.617,813.664z"/>
				<path style="fill:#FFFFFF;" d="M1733.27,813.664h-1.473c-12.972,0-23.488-10.516-23.488-23.488V669.353h48.449v120.823
					C1756.758,803.148,1746.242,813.664,1733.27,813.664z"/>
				<path style="fill:#FFFFFF;" d="M1587.923,813.664h-1.474c-12.972,0-23.488-10.516-23.488-23.488V669.353h48.449v120.823
					C1611.41,803.148,1600.895,813.664,1587.923,813.664z"/>
				<path style="fill:#FFFFFF;" d="M715.837,813.664h-1.473c-12.972,0-23.488-10.516-23.488-23.488V669.353h48.449v120.823
					C739.325,803.148,728.809,813.664,715.837,813.664z"/>
				<path style="fill:#FFFFFF;" d="M570.489,813.664h-1.473c-12.972,0-23.488-10.516-23.488-23.488V669.353h48.449v120.823
					C593.977,803.148,583.461,813.664,570.489,813.664z"/>
				<path style="fill:#FFFFFF;" d="M425.142,813.664h-1.473c-12.972,0-23.488-10.516-23.488-23.488V669.353h48.45v120.823
					C448.63,803.148,438.114,813.664,425.142,813.664z"/>
			</g>
			<g>
				<path style="fill:#184655;" d="M1370.638,847.083h-2.946c-25.944,0-46.976-21.032-46.976-46.976V669.353h96.898v130.754
					C1417.614,826.052,1396.582,847.083,1370.638,847.083z"/>
				<path style="fill:#184655;" d="M1225.29,847.083h-2.946c-25.944,0-46.976-21.032-46.976-46.976V669.353h96.898v130.754
					C1272.266,826.052,1251.234,847.083,1225.29,847.083z"/>
				<path style="fill:#184655;" d="M1079.942,847.083h-2.946c-25.944,0-46.977-21.032-46.977-46.976V669.353h96.898v130.754
					C1126.918,826.052,1105.887,847.083,1079.942,847.083z"/>
				<path style="fill:#184655;" d="M934.595,847.083h-2.946c-25.944,0-46.977-21.032-46.977-46.976V669.353h96.898v130.754
					C981.571,826.052,960.539,847.083,934.595,847.083z"/>
				<path style="fill:#184655;" d="M789.247,847.083h-2.946c-25.944,0-46.976-21.032-46.976-46.976V669.353h96.898v130.754
					C836.224,826.052,815.191,847.083,789.247,847.083z"/>
				<path style="fill:#184655;" d="M1952.027,847.083h-2.945c-25.944,0-46.977-21.032-46.977-46.976V669.353h96.898v130.754
					C1999.004,826.052,1977.973,847.083,1952.027,847.083z"/>
				<path style="fill:#184655;" d="M1806.68,847.083h-2.945c-25.944,0-46.977-21.032-46.977-46.976V669.353h96.898v130.754
					C1853.656,826.052,1832.625,847.083,1806.68,847.083z"/>
				<path style="fill:#184655;" d="M1661.333,847.083h-2.946c-25.944,0-46.977-21.032-46.977-46.976V669.353h96.899v130.754
					C1708.309,826.052,1687.277,847.083,1661.333,847.083z"/>
				<path style="fill:#184655;" d="M1515.985,847.083h-2.946c-25.944,0-46.976-21.032-46.976-46.976V669.353h96.898v130.754
					C1562.961,826.052,1541.93,847.083,1515.985,847.083z"/>
				<path style="fill:#184655;" d="M643.899,847.083h-2.946c-25.944,0-46.976-21.032-46.976-46.976V669.353h96.898v130.754
					C690.876,826.052,669.844,847.083,643.899,847.083z"/>
				<path style="fill:#184655;" d="M498.552,847.083h-2.946c-25.944,0-46.976-21.032-46.976-46.976V669.353h96.898v130.754
					C545.528,826.052,524.496,847.083,498.552,847.083z"/>
			</g>
		</g>
		<polygon style="fill:#184655;" points="2057.673,1826.642 389.105,1826.642 389.105,1783.763 2058.529,1783.763 		"/>
	</g>
	<g>
		<defs>
			
				<rect id="SVGID_1_" x="1209.252" y="798.467" transform="matrix(-1.836970e-16 1 -1 -1.836970e-16 2706.717 -221.1345)" width="509.347" height="888.648"/>
		</defs>
		<clipPath id="SVGID_00000090292432446926009180000004387444766960551868_">
			<use xlink:href="#SVGID_1_"  style="overflow:visible;"/>
		</clipPath>
		<g style="clip-path:url(#SVGID_00000090292432446926009180000004387444766960551868_);">
			<rect x="1444.882" y="1329.55" style="opacity:0.2;fill:#3CB4C5;" width="477.693" height="152.817"/>
			<rect x="1444.882" y="996.295" style="opacity:0.2;fill:#3CB4C5;" width="477.693" height="152.817"/>
			<rect x="1444.882" y="1162.621" style="opacity:0.2;fill:#3CB4C5;" width="477.693" height="152.816"/>
			<g style="opacity:0.5;">
				<rect x="1683.729" y="1254.475" style="fill:#96D9C9;" width="112.972" height="57.403"/>
				<path style="fill:#50BFA5;" d="M1776.739,1254.475c-16.353,14.093-45.313,39.053-66.591,57.403h86.553v-57.403H1776.739z"/>
				<rect x="1690.72" y="1261.834" style="fill:#FFFFFF;" width="56.667" height="3.313"/>
				<rect x="1690.72" y="1271.586" style="fill:#FFFFFF;" width="41.12" height="3.312"/>
			</g>
			<g style="opacity:0.5;">
				<rect x="1683.729" y="1197.962" style="fill:#96D9C9;" width="112.972" height="57.403"/>
				<path style="fill:#50BFA5;" d="M1776.739,1197.962c-16.353,14.093-45.313,39.052-66.591,57.403h86.553v-57.403H1776.739z"/>
				<rect x="1690.72" y="1205.322" style="fill:#FFFFFF;" width="56.667" height="3.31"/>
				<rect x="1690.72" y="1215.072" style="fill:#FFFFFF;" width="41.12" height="3.313"/>
			</g>
			<g style="opacity:0.5;">
				<rect x="1818.106" y="1222.468" style="fill:#9896D9;" width="33.213" height="89.41"/>
				<rect x="1821.101" y="1231.961" style="fill:#EAFCFC;" width="27.225" height="2.374"/>
				<rect x="1821.101" y="1240.664" style="fill:#EAFCFC;" width="27.225" height="2.373"/>
				<g>
					<polygon style="fill:#50BFA5;" points="1818.106,1309.875 1818.106,1311.878 1851.319,1311.878 1851.319,1284.241 					"/>
					<path style="fill:#50BFA5;" d="M1851.319,1266.79v-15.301l-33.213,31.265v13.307
						C1825.169,1289.899,1839.488,1277.254,1851.319,1266.79z"/>
				</g>
			</g>
			<g style="opacity:0.5;">
				<rect x="1864.39" y="1222.468" style="fill:#9896D9;" width="33.213" height="89.41"/>
				<rect x="1867.384" y="1231.961" style="fill:#EAFCFC;" width="27.225" height="2.374"/>
				<rect x="1867.384" y="1240.664" style="fill:#EAFCFC;" width="27.225" height="2.373"/>
				<g>
					<polygon style="fill:#50BFA5;" points="1864.39,1309.875 1864.39,1311.878 1897.603,1311.878 1897.603,1284.241 					"/>
					<path style="fill:#50BFA5;" d="M1897.603,1266.79v-15.301l-33.213,31.265v13.307
						C1871.451,1289.899,1885.771,1277.254,1897.603,1266.79z"/>
				</g>
			</g>
			<g style="opacity:0.5;">
				<rect x="1818.106" y="1055.6" style="fill:#96D9C9;" width="33.213" height="89.41"/>
				<rect x="1821.101" y="1065.093" style="fill:#EAFCFC;" width="27.225" height="2.374"/>
				<rect x="1821.101" y="1073.796" style="fill:#EAFCFC;" width="27.225" height="2.373"/>
				<g>
					<polygon style="fill:#50BFA5;" points="1818.106,1143.007 1818.106,1145.01 1851.319,1145.01 1851.319,1117.373 					"/>
					<path style="fill:#50BFA5;" d="M1851.319,1099.922v-15.301l-33.213,31.265v13.307
						C1825.169,1123.029,1839.488,1110.386,1851.319,1099.922z"/>
				</g>
			</g>
			<g style="opacity:0.5;">
				<rect x="1489.985" y="1055.6" style="fill:#96D9C9;" width="33.212" height="89.41"/>
				<rect x="1492.979" y="1065.093" style="fill:#EAFCFC;" width="27.225" height="2.374"/>
				<rect x="1492.979" y="1073.796" style="fill:#EAFCFC;" width="27.225" height="2.373"/>
				<g>
					<polygon style="fill:#50BFA5;" points="1489.985,1143.007 1489.985,1145.01 1523.197,1145.01 1523.197,1117.373 					"/>
					<path style="fill:#50BFA5;" d="M1523.197,1099.922v-15.301l-33.212,31.265v13.307
						C1497.047,1123.029,1511.366,1110.386,1523.197,1099.922z"/>
				</g>
			</g>
			<g style="opacity:0.5;">
				<rect x="1864.39" y="1055.6" style="fill:#96D9C9;" width="33.213" height="89.41"/>
				<rect x="1867.384" y="1065.093" style="fill:#EAFCFC;" width="27.225" height="2.374"/>
				<rect x="1867.384" y="1073.796" style="fill:#EAFCFC;" width="27.225" height="2.373"/>
				<g>
					<polygon style="fill:#50BFA5;" points="1864.39,1143.007 1864.39,1145.01 1897.603,1145.01 1897.603,1117.373 					"/>
					<path style="fill:#50BFA5;" d="M1897.603,1099.922v-15.301l-33.213,31.265v13.307
						C1871.451,1123.029,1885.771,1110.386,1897.603,1099.922z"/>
				</g>
			</g>
			<g style="opacity:0.5;">
				<rect x="1593.918" y="1222.468" style="fill:#D7D996;" width="33.212" height="89.41"/>
				<rect x="1596.912" y="1231.961" style="fill:#EAFCFC;" width="27.225" height="2.374"/>
				<rect x="1596.912" y="1240.664" style="fill:#EAFCFC;" width="27.225" height="2.373"/>
				<g>
					<polygon style="fill:#50BFA5;" points="1593.918,1309.875 1593.918,1311.878 1627.131,1311.878 1627.131,1284.241 					"/>
					<path style="fill:#50BFA5;" d="M1627.131,1266.79v-15.301l-33.212,31.265v13.307
						C1600.98,1289.899,1615.3,1277.254,1627.131,1266.79z"/>
				</g>
			</g>
			<g style="opacity:0.5;">
				<rect x="1640.201" y="1222.468" style="fill:#CF96D9;" width="33.213" height="89.41"/>
				<rect x="1643.195" y="1231.961" style="fill:#EAFCFC;" width="27.225" height="2.374"/>
				<rect x="1643.195" y="1240.664" style="fill:#EAFCFC;" width="27.225" height="2.373"/>
				<g>
					<polygon style="fill:#50BFA5;" points="1640.201,1309.875 1640.201,1311.878 1673.414,1311.878 1673.414,1284.241 					"/>
					<path style="fill:#50BFA5;" d="M1673.414,1266.79v-15.301l-33.213,31.265v13.307
						C1647.263,1289.899,1661.583,1277.254,1673.414,1266.79z"/>
				</g>
			</g>
			<g style="opacity:0.5;">
				<rect x="1491.779" y="1222.468" style="fill:#CF96D9;" width="33.213" height="89.41"/>
				<rect x="1494.773" y="1231.961" style="fill:#EAFCFC;" width="27.225" height="2.374"/>
				<rect x="1494.773" y="1240.664" style="fill:#EAFCFC;" width="27.225" height="2.373"/>
				<g>
					<polygon style="fill:#50BFA5;" points="1491.779,1309.875 1491.779,1311.878 1524.992,1311.878 1524.992,1284.241 					"/>
					<path style="fill:#50BFA5;" d="M1524.992,1266.79v-15.301l-33.213,31.265v13.307
						C1498.842,1289.899,1513.161,1277.254,1524.992,1266.79z"/>
				</g>
			</g>
			<g style="opacity:0.5;">
				<rect x="1538.063" y="1222.468" style="fill:#96D9C9;" width="33.213" height="89.41"/>
				<rect x="1541.056" y="1231.961" style="fill:#EAFCFC;" width="27.225" height="2.374"/>
				<rect x="1541.056" y="1240.664" style="fill:#EAFCFC;" width="27.225" height="2.373"/>
				<g>
					<polygon style="fill:#50BFA5;" points="1538.063,1309.875 1538.063,1311.878 1571.275,1311.878 1571.275,1284.241 					"/>
					<path style="fill:#50BFA5;" d="M1571.275,1266.79v-15.301l-33.213,31.265v13.307
						C1545.124,1289.899,1559.443,1277.254,1571.275,1266.79z"/>
				</g>
			</g>
			<g style="opacity:0.5;">
				<rect x="1554.021" y="1052.013" style="fill:#D99696;" width="92.393" height="92.997"/>
				<rect x="1577.588" y="1066.684" style="fill:#FFFFFF;" width="44.578" height="15.761"/>
			</g>
			<g style="opacity:0.5;">
				<rect x="1696.4" y="1052.013" style="fill:#D7D996;" width="92.711" height="92.997"/>
				<rect x="1708.468" y="1066.684" style="fill:#FFFFFF;" width="67.578" height="15.761"/>
				<rect x="1708.468" y="1108.854" style="fill:#FFFFFF;" width="67.578" height="4.285"/>
			</g>
			<g style="opacity:0.5;">
				<rect x="1455.146" y="1414.608" style="fill:#96D9C9;" width="98.874" height="63.653"/>
				<rect x="1468.684" y="1424.65" style="fill:#FFFFFF;" width="75.814" height="10.788"/>
				<rect x="1468.684" y="1453.515" style="fill:#FFFFFF;" width="75.814" height="2.933"/>
				<g>
					<rect x="1468.684" y="1460.545" style="fill:#FFFFFF;" width="57.393" height="2.934"/>
				</g>
				<g>
					<rect x="1468.684" y="1467.575" style="fill:#FFFFFF;" width="71.675" height="2.934"/>
				</g>
			</g>
			<g style="opacity:0.5;">
				<rect x="1455.146" y="1351.845" style="fill:#96D9C9;" width="98.874" height="63.653"/>
				<rect x="1468.684" y="1361.887" style="fill:#FFFFFF;" width="75.814" height="10.788"/>
				<rect x="1468.684" y="1390.751" style="fill:#FFFFFF;" width="75.814" height="2.934"/>
				<g>
					<rect x="1468.684" y="1397.781" style="fill:#FFFFFF;" width="57.393" height="2.934"/>
				</g>
				<g>
					<rect x="1468.684" y="1404.812" style="fill:#FFFFFF;" width="71.675" height="2.934"/>
				</g>
			</g>
			<g>
				<g>
					<path style="fill:#EAFCFC;" d="M1926.56,1152.672h-485.662V992.734h485.662V1152.672z M1448.018,1145.552h471.422V999.854
						h-471.422V1145.552z"/>
				</g>
				<path style="opacity:0.4;fill:#EAFCFC;" d="M1444.457,1149.112l168.406-152.817c0,0,115.51,0,113.928,0
					c-1.583,0-169.309,152.817-169.309,152.817H1444.457z"/>
				<path style="opacity:0.4;fill:#EAFCFC;" d="M1640.65,1149.112l168.406-152.817c0,0,67.264,0,65.682,0
					s-161.397,152.817-161.397,152.817H1640.65z"/>
			</g>
			<g>
				<g>
					<path style="fill:#EAFCFC;" d="M1926.56,1318.998h-485.662v-159.938h485.662V1318.998z M1448.018,1311.878h471.422v-145.696
						h-471.422V1311.878z"/>
				</g>
				<path style="opacity:0.4;fill:#EAFCFC;" d="M1444.457,1315.438l168.406-152.816c0,0,115.51,0,113.928,0
					c-1.583,0-169.309,152.816-169.309,152.816H1444.457z"/>
				<path style="opacity:0.4;fill:#EAFCFC;" d="M1640.65,1315.438l168.406-152.816c0,0,67.264,0,65.682,0
					s-161.397,152.816-161.397,152.816H1640.65z"/>
			</g>
			<g>
				<g>
					<path style="fill:#EAFCFC;" d="M1926.56,1484.781h-485.662v-159.938h485.662V1484.781z M1448.018,1477.66h471.422v-145.697
						h-471.422V1477.66z"/>
				</g>
				<path style="opacity:0.4;fill:#EAFCFC;" d="M1444.457,1481.221l168.406-152.816c0,0,115.51,0,113.928,0
					c-1.583,0-169.309,152.816-169.309,152.816H1444.457z"/>
				<path style="opacity:0.4;fill:#EAFCFC;" d="M1640.65,1481.221l168.406-152.816c0,0,67.264,0,65.682,0
					s-161.397,152.816-161.397,152.816H1640.65z"/>
			</g>
			<rect x="966.485" y="1329.55" style="opacity:0.2;fill:#3CB4C5;" width="477.693" height="152.817"/>
			<rect x="966.485" y="996.295" style="opacity:0.2;fill:#3CB4C5;" width="477.693" height="152.817"/>
			<rect x="966.485" y="1162.621" style="opacity:0.2;fill:#3CB4C5;" width="477.693" height="152.816"/>
			<g style="opacity:0.5;">
				<rect x="1205.332" y="1254.475" style="fill:#96D9C9;" width="112.972" height="57.403"/>
				<path style="fill:#50BFA5;" d="M1298.342,1254.475c-16.353,14.093-45.313,39.053-66.591,57.403h86.553v-57.403H1298.342z"/>
				<rect x="1212.322" y="1261.834" style="fill:#FFFFFF;" width="56.667" height="3.313"/>
				<rect x="1212.322" y="1271.586" style="fill:#FFFFFF;" width="41.121" height="3.312"/>
			</g>
			<g style="opacity:0.5;">
				<rect x="1205.332" y="1197.962" style="fill:#96D9C9;" width="112.972" height="57.403"/>
				<path style="fill:#50BFA5;" d="M1298.342,1197.962c-16.353,14.093-45.313,39.052-66.591,57.403h86.553v-57.403H1298.342z"/>
				<rect x="1212.322" y="1205.322" style="fill:#FFFFFF;" width="56.667" height="3.31"/>
				<rect x="1212.322" y="1215.072" style="fill:#FFFFFF;" width="41.121" height="3.313"/>
			</g>
			<g style="opacity:0.5;">
				<rect x="1339.709" y="1222.468" style="fill:#96D9C9;" width="33.213" height="89.41"/>
				<rect x="1342.703" y="1231.961" style="fill:#EAFCFC;" width="27.225" height="2.374"/>
				<rect x="1342.703" y="1240.664" style="fill:#EAFCFC;" width="27.225" height="2.373"/>
				<g>
					<polygon style="fill:#50BFA5;" points="1339.709,1309.875 1339.709,1311.878 1372.922,1311.878 1372.922,1284.241 					"/>
					<path style="fill:#50BFA5;" d="M1372.922,1266.79v-15.301l-33.213,31.265v13.307
						C1346.771,1289.899,1361.091,1277.254,1372.922,1266.79z"/>
				</g>
			</g>
			<g style="opacity:0.5;">
				<rect x="1385.992" y="1222.468" style="fill:#CF96D9;" width="33.213" height="89.41"/>
				<rect x="1388.986" y="1231.961" style="fill:#EAFCFC;" width="27.225" height="2.374"/>
				<rect x="1388.986" y="1240.664" style="fill:#EAFCFC;" width="27.225" height="2.373"/>
				<g>
					<polygon style="fill:#50BFA5;" points="1385.992,1309.875 1385.992,1311.878 1419.205,1311.878 1419.205,1284.241 					"/>
					<path style="fill:#50BFA5;" d="M1419.205,1266.79v-15.301l-33.213,31.265v13.307
						C1393.054,1289.899,1407.374,1277.254,1419.205,1266.79z"/>
				</g>
			</g>
			<g style="opacity:0.5;">
				<rect x="991.319" y="1052.013" style="fill:#D9BF96;" width="89.29" height="92.997"/>
				<rect x="1003.387" y="1066.684" style="fill:#FFFFFF;" width="67.578" height="15.761"/>
				<rect x="1003.387" y="1108.854" style="fill:#FFFFFF;" width="67.578" height="4.285"/>
				<g>
					<rect x="1003.387" y="1119.125" style="fill:#FFFFFF;" width="51.158" height="4.285"/>
				</g>
				<g>
					<rect x="1003.387" y="1129.396" style="fill:#FFFFFF;" width="63.889" height="4.286"/>
				</g>
			</g>
			<g style="opacity:0.5;">
				<rect x="1102.434" y="1052.013" style="fill:#7EC9B7;" width="91.911" height="92.997"/>
				<rect x="1114.502" y="1066.684" style="fill:#FFFFFF;" width="67.578" height="15.761"/>
			</g>
			<g style="opacity:0.5;">
				<rect x="991.319" y="1202.171" style="fill:#CF96D9;" width="89.29" height="109.707"/>
				<rect x="1003.387" y="1219.479" style="fill:#FFFFFF;" width="67.578" height="18.593"/>
				<rect x="1003.387" y="1269.226" style="fill:#FFFFFF;" width="67.578" height="5.056"/>
				<g>
					<rect x="1003.387" y="1281.343" style="fill:#FFFFFF;" width="51.158" height="5.056"/>
				</g>
				<g>
					<rect x="1003.387" y="1293.46" style="fill:#FFFFFF;" width="63.889" height="5.056"/>
				</g>
			</g>
			<g style="opacity:0.5;">
				<rect x="1102.434" y="1202.171" style="fill:#D7D996;" width="91.911" height="109.707"/>
				<rect x="1114.502" y="1219.479" style="fill:#FFFFFF;" width="67.578" height="18.593"/>
				<g>
					<rect x="1114.502" y="1281.343" style="fill:#FFFFFF;" width="51.158" height="5.056"/>
				</g>
				<g>
					<rect x="1114.502" y="1293.46" style="fill:#FFFFFF;" width="63.889" height="5.056"/>
				</g>
			</g>
			<g style="opacity:0.5;">
				<rect x="1122.304" y="1368.556" style="fill:#D99696;" width="89.29" height="109.706"/>
			</g>
			<ellipse style="fill:#BDA6A6;" cx="1166.949" cy="1398.566" rx="27" ry="11"/>
			<g style="opacity:0.5;">
				<rect x="1229.844" y="1368.556" style="fill:#7EC9B7;" width="91.911" height="109.706"/>
				<rect x="1241.911" y="1385.863" style="fill:#FFFFFF;" width="67.578" height="18.592"/>
				<rect x="1241.911" y="1411.057" style="fill:#FFFFFF;" width="67.578" height="4.842"/>
				<g>
					<rect x="1241.911" y="1459.844" style="fill:#FFFFFF;" width="63.89" height="5.056"/>
				</g>
			</g>
			<g style="opacity:0.5;">
				<rect x="1340.037" y="1368.556" style="fill:#D7D996;" width="91.911" height="109.706"/>
				<rect x="1352.104" y="1385.863" style="fill:#FFFFFF;" width="67.578" height="18.592"/>
				<rect x="1352.104" y="1435.609" style="fill:#FFFFFF;" width="67.578" height="5.057"/>
				<g>
					<rect x="1352.104" y="1447.727" style="fill:#FFFFFF;" width="51.158" height="5.057"/>
				</g>
				<g>
					<rect x="1352.104" y="1459.844" style="fill:#FFFFFF;" width="63.889" height="5.056"/>
				</g>
			</g>
			<g style="opacity:0.5;">
				<rect x="1581.831" y="1368.556" style="fill:#D7D996;" width="89.29" height="109.706"/>
			</g>
			<g style="opacity:0.5;">
				<rect x="1689.371" y="1368.556" style="fill:#7EC9B7;" width="91.911" height="109.706"/>
				<rect x="1701.438" y="1385.863" style="fill:#FFFFFF;" width="67.578" height="18.592"/>
			</g>
			<g style="opacity:0.5;">
				<rect x="1799.563" y="1368.556" style="fill:#D7D996;" width="91.911" height="109.706"/>
				<rect x="1811.632" y="1385.863" style="fill:#FFFFFF;" width="67.577" height="18.592"/>
				<rect x="1811.632" y="1435.609" style="fill:#FFFFFF;" width="67.577" height="5.057"/>
				<g>
					<rect x="1811.632" y="1447.727" style="fill:#FFFFFF;" width="51.158" height="5.057"/>
				</g>
				<g>
					<rect x="1811.632" y="1459.844" style="fill:#FFFFFF;" width="63.889" height="5.056"/>
				</g>
			</g>
			<g style="opacity:0.5;">
				<rect x="1215.862" y="1052.013" style="fill:#D7D996;" width="91.911" height="92.997"/>
				<rect x="1227.93" y="1070.684" style="fill:#FFFFFF;" width="67.578" height="7.761"/>
				<g>
					<rect x="1227.93" y="1129.396" style="fill:#FFFFFF;" width="63.889" height="4.286"/>
				</g>
			</g>
			<g style="opacity:0.5;">
				<rect x="1323.973" y="1052.013" style="fill:#7EC9B7;" width="91.911" height="92.997"/>
				<rect x="1344.374" y="1066.684" style="fill:#FFFFFF;" width="50.911" height="11.761"/>
			</g>
			<g style="opacity:0.5;">
				<rect x="976.748" y="1414.608" style="fill:#96D9C9;" width="127.801" height="63.653"/>
				<rect x="990.287" y="1424.65" style="fill:#FFFFFF;" width="75.814" height="10.788"/>
				<rect x="990.287" y="1453.515" style="fill:#FFFFFF;" width="75.814" height="2.933"/>
				<g>
					<rect x="990.287" y="1460.545" style="fill:#FFFFFF;" width="57.394" height="2.934"/>
				</g>
				<g>
					<rect x="990.287" y="1467.575" style="fill:#FFFFFF;" width="71.676" height="2.934"/>
				</g>
			</g>
			<g style="opacity:0.5;">
				<rect x="976.748" y="1351.845" style="fill:#96D9C9;" width="127.801" height="63.653"/>
				<rect x="990.287" y="1361.887" style="fill:#FFFFFF;" width="75.814" height="10.788"/>
				<rect x="990.287" y="1390.751" style="fill:#FFFFFF;" width="75.814" height="2.934"/>
				<g>
					<rect x="990.287" y="1397.781" style="fill:#FFFFFF;" width="57.394" height="2.934"/>
				</g>
				<g>
					<rect x="990.287" y="1404.812" style="fill:#FFFFFF;" width="71.676" height="2.934"/>
				</g>
			</g>
			<g>
				<g>
					<path style="fill:#EAFCFC;" d="M1448.162,1152.672H962.5V992.734h485.662V1152.672z M969.62,1145.552h471.422V999.854H969.62
						V1145.552z"/>
				</g>
				<path style="opacity:0.4;fill:#EAFCFC;" d="M966.06,1149.112l168.405-152.817c0,0,115.51,0,113.928,0
					c-1.583,0-169.309,152.817-169.309,152.817H966.06z"/>
				<path style="opacity:0.4;fill:#EAFCFC;" d="M1162.253,1149.112l168.406-152.817c0,0,67.265,0,65.682,0
					c-1.582,0-161.397,152.817-161.397,152.817H1162.253z"/>
			</g>
			<g>
				<g>
					<path style="fill:#EAFCFC;" d="M1448.162,1318.998H962.5v-159.938h485.662V1318.998z M969.62,1311.878h471.422v-145.696H969.62
						V1311.878z"/>
				</g>
				<path style="opacity:0.4;fill:#EAFCFC;" d="M966.06,1315.438l168.405-152.816c0,0,115.51,0,113.928,0
					c-1.583,0-169.309,152.816-169.309,152.816H966.06z"/>
				<path style="opacity:0.4;fill:#EAFCFC;" d="M1162.253,1315.438l168.406-152.816c0,0,67.265,0,65.682,0
					c-1.582,0-161.397,152.816-161.397,152.816H1162.253z"/>
			</g>
			<g>
				<g>
					<path style="fill:#EAFCFC;" d="M1448.162,1484.781H962.5v-159.938h485.662V1484.781z M969.62,1477.66h471.422v-145.697H969.62
						V1477.66z"/>
				</g>
				<path style="opacity:0.4;fill:#EAFCFC;" d="M966.06,1481.221l168.405-152.816c0,0,115.51,0,113.928,0
					c-1.583,0-169.309,152.816-169.309,152.816H966.06z"/>
				<path style="opacity:0.4;fill:#EAFCFC;" d="M1162.253,1481.221l168.406-152.816c0,0,67.265,0,65.682,0
					c-1.582,0-161.397,152.816-161.397,152.816H1162.253z"/>
			</g>
		</g>
	</g>
	<rect x="977.543" y="1522.992" style="fill:#50BFA5;" width="994.505" height="34.936"/>
	<g>
		<path style="fill:#A34B3D;" d="M1870.547,1214.693c0.749-18.141-1.911-36.054-9.992-52.942
			c-6.953-14.53-24.157-22.776-39.847-22.796c-49.819-0.065-56.153,66.04-87.866,91.539c-9.69,7.791-20.521,14.137-29.69,22.54
			c-33.857,31.025-18.607,88.459,12.482,115.66c21.574,18.875,55.48,29.599,82.07,14.844c13.88-7.702,24.417-20.506,31.923-34.534
			c10.654-19.91,17.522-42.882,25.1-64.101C1862.792,1262.317,1869.55,1238.805,1870.547,1214.693z"/>
		<path style="fill:#F7A491;" d="M1692.521,1144.104c2.299-1.668,8.12,10.199,10.917,10.085c2.797-0.115-1.932-16.608,0.174-17.882
			c3.878-2.346,6.29,17.746,8.142,16.78c1.853-0.967,0.388-21.808,4.395-20.709c4.006,1.098-0.735,21.769,1.714,21.616
			c2.45-0.152,2.68-19.619,7.794-20.807c2.733-0.634-4.613,33.223-2.144,36.152c2.469,2.931,12.978-7.842,15.653-5.723
			c2.675,2.12-20.582,17.938-20.943,20.064c-0.361,2.118-5.174,47.574-4.546,62.602c5.184,0.292,34.508,6.097,39.377,6.266
			c-3.225,9.504,4.703,19.325,2.048,28.934c-16.434-1.453-65.319-5.181-68.387-8.708c-9.34-10.738,7.775-77.102,11.718-88.737
			c3.945-11.646,0.084-16.476,0.293-23.613C1698.936,1153.286,1690.222,1145.77,1692.521,1144.104z"/>
		<g>
			<path style="fill:#F48C7F;" d="M1768.706,1822.854c4.143-3.052,7.485-5.07,20.717-11.485c0.862-0.418,4.005-2.42,5.138-3.114
				c2.873-1.758,5.758-4.525,8.242-7.297c2.371-2.646,3.501-11.129,4.034-17.89c-1.362-15.099-23.241-257.268-27.856-283.483
				c-4.764-27.061,2.492-68.339,2.492-68.339l16.892-6.37l32.064,111.138l-2.528,84.598c0,0,7.54,24.385,8.492,38.956
				c0.953,14.571-10.898,132.853-10.898,132.853h-0.002c0,4.229,0.166,8.055,0.636,10.443c0.87,4.425,5.718,13.532,3.494,17.695
				c-2.224,4.164-4.765,5.204-4.765,5.204l-57.617,0.931C1764.102,1826.744,1766.176,1824.72,1768.706,1822.854z"/>
			<path style="fill:#F79C8D;" d="M1856.152,1422.564c0,0,20.008,30.184,24.771,55.163c4.765,24.979-3.496,101.747,5.668,134.481
				c4.961,17.72,23.762,45.084,26.62,67.982c2.858,22.897,12.804,88.988,12.804,88.988h-0.001c1.505,6.938,3.861,15.52,6.921,19.509
				c1.873,2.441,5.294,5.53,7.54,9.944c3.495,6.869,1.563,17.097-1.016,22.729c-1.323,2.892,0.093,2.884-2.921,3.814
				c-8.924,2.76-18.417-1.888-22.217-10.453c-2.123-4.785-3.984-11.169-4.359-19.212c-0.396-8.525-1.73-15.299-3.151-20.309l0,0
				l-63.954-156.884l-46.3-135.392l-11.86-69.731L1856.152,1422.564z"/>
			<path style="fill:#86B1F2;" d="M1912.592,1810.218c13.842,2.529,23.052-5.587,27.845-11.662
				c3.518,6.883,5.233,17.153,2.646,22.807c-2.279,4.98-8.939,4.838-14.185,5.032c-5.545,0.207-9.836-2.881-12.587-7.721
				C1915.026,1816.414,1913.701,1813.6,1912.592,1810.218z"/>
			<path style="fill:#86B1F2;" d="M1794.568,1808.25c15.237,3.919,26.502,1.255,32.803-1.291c1.625,4.615,3.779,10.406,2.637,13.745
				c-1.398,4.089-3.391,5.013-5.15,5.059c-13.918,0.366-50.983,0.865-61.596,1.005c-1.482,0.019-2.3-1.717-1.348-2.857
				C1764.547,1820.76,1793.433,1808.945,1794.568,1808.25z"/>
			<path style="fill:#13375B;" d="M1843.178,1615.361c-1.195,0.081-2.399,0.159-3.609,0.231c-0.063,0.004-0.124,0.008-0.187,0.011
				c-1.187,0.072-2.38,0.139-3.575,0.201c-0.072,0.004-0.146,0.008-0.219,0.012c-1.197,0.062-2.398,0.118-3.602,0.17
				c-0.063,0.003-0.123,0.006-0.185,0.008c-1.225,0.052-2.452,0.1-3.679,0.14c-13.657,0.448-30.527,0.274-41.352-1.565
				c-5.518-55.242-7.573-105.658-9.615-116.815c-4.954-27.062,4.316-69.775,4.316-69.775l-0.746-10.141l2.374-6.47l74.307,9.367
				c0,0,20.806,30.183,25.761,55.162c4.953,24.979-3.637,101.747,5.893,134.481
				C1889.061,1610.377,1867.847,1613.682,1843.178,1615.361z"/>
		</g>
		<path style="fill:#EAB054;" d="M1741.982,1248.414c0,0,55.636-5.82,72.053-0.327c16.418,5.492,27.952,28.952,19.188,42.077
			c-8.766,13.124-87.721-4.064-87.721-4.064L1741.982,1248.414z"/>
		<path style="fill:#F7CC7F;" d="M1840.106,1243.24c0,0,27.521-1.704,38.407,9.828c10.888,11.531-24.15,102.754-26.131,117.43
			c-1.979,14.678,10.092,53.701,10.092,53.701s-64.647,12.641-83.124,0.76c0,0-3.395-106.559-1.414-117.043
			c1.979-10.483,19.891-52.097,23.851-56.29C1805.746,1247.433,1840.106,1243.24,1840.106,1243.24z"/>
		<path style="fill:#F7A491;" d="M1830.945,1207.506c0,0,0.143,0.787,0.398,2.127c1.227,6.43,5.951,27.759,9.145,33.622
			c3.856,7.086-13.207,29.687-29.631,26.928c-4.889-0.821,4.133-20.765,3.699-22.878c-0.83-4.044-1.955-9.561-3.107-15.218
			c-0.649-3.191-1.307-6.427-1.926-9.468c-1.756-8.642-3.189-15.71-3.189-15.71L1830.945,1207.506z"/>
		<path style="fill:#F47458;" d="M1831.344,1209.633c-0.256-1.34-0.398-2.127-0.398-2.127l-24.611-0.597
			c0,0,1.434,7.068,3.189,15.71c0.615,3.024,1.27,6.24,1.916,9.415c3.799-0.544,7.77-2.339,11.75-5.726
			c4.34-3.691,7.184-8.127,8.9-12.864C1831.787,1211.934,1831.533,1210.63,1831.344,1209.633z"/>
		<path style="fill:#F7A491;" d="M1814.381,1153.145c0,0,11.6-1.303,18.871,7.836s15.108,37.4-2.954,52.766
			s-35.909-2.027-38.556-20.468S1788.067,1152.479,1814.381,1153.145z"/>
		<path style="fill:#F7A491;" d="M1786.398,1193.006c2.156,4.072,5.774,6.328,8.083,5.037c2.308-1.291,2.432-5.64,0.275-9.713
			c-2.155-4.072-5.774-6.327-8.083-5.036C1784.366,1184.584,1784.242,1188.933,1786.398,1193.006z"/>
		<path style="fill:#A34B3D;" d="M1813.084,1150.123c0,0,15.497,26.875,26.583,28.117c11.087,1.242,12.542,15.521,12.542,15.521
			s-3.963-32.905-14.938-39.251S1813.084,1150.123,1813.084,1150.123z"/>
		<path style="fill:#F7A491;" d="M1836.76,1184.993c-0.901,4.772,0.912,9.149,4.051,9.775c3.139,0.627,6.413-2.734,7.314-7.507
			c0.902-4.772-0.911-9.149-4.05-9.775C1840.937,1176.859,1837.661,1180.221,1836.76,1184.993z"/>
		<path style="fill:#FFFFFF;" d="M1821.529,1197.416l-15.834,2.269c0,0,1.227,5.962,8.219,5.165
			C1822.439,1203.879,1821.529,1197.416,1821.529,1197.416z"/>
		<path style="fill:#B75742;" d="M1938.689,1517.256l-2.145-5.281l-3.7,2.672l-2.522,7.285l1.789,1.451
			C1932.111,1523.383,1937.095,1518.548,1938.689,1517.256z"/>
		<g>
			<g>
				<path style="fill:#3C8F7C;" d="M1903.947,1550.374l0.773-20.723c0.576-15.426,9.262-28.745,19.36-29.692
					s21.453,11.69,25.311,28.169l5.182,22.142c0.509,2.175,3.329,2.18,2.786-0.006l-5.51-22.219
					c-4.552-18.359-17.156-32.388-28.096-31.271c-10.94,1.117-20.582,15.903-21.492,32.961l-1.102,20.646
					C1901.052,1552.408,1903.87,1552.413,1903.947,1550.374z"/>
			</g>
			<polygon style="fill:#215E4B;" points="1888.042,1532.874 1891.965,1532.783 1882.146,1668.731 1858.189,1668.903 			"/>
			<polygon style="fill:#3C8F7C;" points="1882.146,1668.731 2024.414,1668.731 1997.568,1533.191 1891.965,1532.783 			"/>
			<polygon style="fill:#215E4B;" points="1956.255,1655.512 2024.414,1668.731 1882.146,1668.731 			"/>
			<g>
				<path style="fill:#3C8F7C;" d="M1914.886,1547.435l0.774-20.724c0.576-15.424,9.261-28.743,19.36-29.692
					c10.099-0.947,21.453,11.689,25.31,28.17l5.182,22.141c0.509,2.175,3.329,2.18,2.787-0.006l-5.51-22.219
					c-4.552-18.359-17.156-32.388-28.097-31.271c-10.939,1.117-20.581,15.903-21.491,32.961l-1.102,20.645
					C1911.991,1549.469,1914.811,1549.474,1914.886,1547.435z"/>
			</g>
		</g>
		<path style="fill:#F7A491;" d="M1920.601,1482.306c0.101-0.431-17.241-74.022-24.249-90.295
			c-7.007-16.272-34.249-91.852-34.249-91.852l27.64-11.188c0,0,26.525,61.15,36.893,87.89
			c10.366,26.739,9.769,77.525,10.231,91.437c0.007,0.2,1.521,11.768,1.53,11.964l0,0c0.354,1.537,0.681,2.824,0.834,3.072
			c0.42,0.68,1.628,5.348,1.683,5.749c0.055,0.402,1.089,1.98,1.509,2.661c0.42,0.68,1.378,10.131,1.586,11.659
			c0.207,1.527-0.471,4.978-0.471,4.978l0.371,6.337c0.271,4.653-4.554,3.423-4.554,3.423c0.114,2.195-0.651,3.344-1.886,3.758
			c-1.234,0.413-2.696,0.058-2.93,0.152c-0.232,0.093-0.324,0.781-0.324,0.781c0.129,1.395-1.445,2.469-2.463,2.668
			s-2.83-0.476-3.343-1.082c-0.513-0.605-0.87-0.517-0.87-0.517c-1.027,0.877-4.966,0.839-5.875-0.43
			c-0.911-1.269-1.738-7.953-2.146-8.553c-0.41-0.599-1.287-1.627-1.418-2.592c-0.132-0.965-3.357-7.815-3.543-9.182
			c-0.187-1.366,1.809-5.978,2.252-8.741c0.444-2.762,3.138-7.06,3.789-8.294c0.254-0.483,0.184-2.062,0.005-3.805H1920.601z"/>
		<path style="fill:#F7CC7F;" d="M1877.324,1348.539c0,0-31.084-46.507-33.879-63.592c-2.794-17.085,12.584-38.226,28.281-36.59
			s42.527,79.44,42.527,79.44L1877.324,1348.539z"/>
	</g>
	<g>
		<path style="fill:#184655;" d="M1029.82,1162.639c4.853,19.941-21.409,34.42-42.204,34.95
			c-13.514,0.344-19.727-1.04-21.912-15.232c-3.544-23.02,5.974-37.053,19.309-42.861
			C1002.219,1132.002,1025.816,1146.188,1029.82,1162.639z"/>
		<path style="fill:#F7A491;" d="M1004.219,1486.945l-16.318,145.346c0,0,7.976,30.736,7.014,39.469
			c-0.961,8.732-17.736,123.281-17.736,123.281l0.707,6.427l0.019,18.974H915.64c0,0,13.216-5.9,31.702-17.561
			c1.367-0.862,4.517-3.611,5.284-9.094c4.936-35.307-4.831-153.074-4.831-153.074l-7.693-153.297L1004.219,1486.945z"/>
		<path style="fill:#F7A491;" d="M1054.258,1517.52c3.516,0.887,8.929,125.858,11.841,131.397
			c18.463,35.116,22.851,141.876,22.851,141.876l5.507,15.537l5.594,18.463c0,0-18.428,4.732-28.096-0.589l1.073-18.378
			l0.981-16.807l-46.58-133.009l-25.488-135.669L1054.258,1517.52z"/>
		<path style="fill:#355389;" d="M961.62,1275.433c7.514-10.235,38.515-39.886,41.958-39.825c10.04,0.176,42.995,0.188,49.437,3.449
			l-0.311,56.445c-1.05,4.737-23.8,78.537-22.479,94.693l-0.157,0.151c-19.068,18.351-49.139,16.909-66.577-3.192l0,0
			c0,0,0.076-22.386-2.609-42.808C956.675,1312.354,942.955,1300.859,961.62,1275.433z"/>
		<path style="fill:#13375B;" d="M934.288,1581.49l-2.215-86.228c-0.383-24.37,4.599-48.521,14.587-70.713l16.831-37.396
			c6.809,2.159,13.226,3.997,20.382,4.797c15.565,1.742,30.875,0.013,46.352-1.756c0.047,0.585,0.119,1.095,0.213,1.524
			c2.809,12.698,18.454,41.009,25.044,79.704c7.481,43.924,9.435,104.821,8.5,109.976
			C1020.655,1591.506,976.247,1591.839,934.288,1581.49z"/>
		<path style="fill:#F7A491;" d="M1013.681,1203.833c0,0-0.869,20.824,1.008,28.72c1.877,7.895,4.379,8.492-11.733,10.894
			c-6.328,0.943-12.432,2.352-12.432,2.352s1.654-11.594,1.903-16.488c0.413-8.061-1.862-32.952-1.862-32.952L1013.681,1203.833z"/>
		<path style="fill:#F47458;" d="M1001.411,1214.195c-3.314,1.786-6.411,2.841-9.267,3.278c-0.548-9.833-1.579-21.115-1.579-21.115
			l22.052,7.13C1010.058,1207.748,1006.421,1211.496,1001.411,1214.195z"/>
		<path style="fill:#F47458;" d="M1073.032,1805.752c8.504,3.774,17.658,1.498,21.34,0.294l1.223,3.282l4.689,15.582
			c0,0-18.662,4.615-28.33-0.706L1073.032,1805.752z"/>
		<path style="fill:#F47458;" d="M978.548,1825.154h-64.73c-2.394-0.216-2.978-2.166-2.147-3.368
			c1.709-2.474,9.26-4.289,17.748-8.232c14.889,1.563,46.129-8.681,48.479-12.124
			C979.254,1808.325,979.878,1824.859,978.548,1825.154z"/>
		<g>
			<path style="fill:#FAE0B2;" d="M1004.672,1467.663l-8.06-0.162l4.542-212.223c-8.446,1.51-15.521,7.573-17.919,15.769
				l-56.08,191.643l-7.757-2.128l56.08-191.642c3.758-12.844,16.012-21.813,29.799-21.813h4.115L1004.672,1467.663z"/>
		</g>
		<g>
			<path style="fill:#F8A492;" d="M886.42,1300.72c-0.244-1.198,0.537-3.655-1.105-13.062c-0.475-2.715-3.03-5.684-3.03-5.684
				s-3.171-3.625-4.242-3.108c-1.071,0.517-1.429,1.975-1.117,2.861s1.748,2.17,2.06,3.055c0.313,0.887-0.911,3.633-1.683,4.406
				c-0.771,0.774-9.755-10.226-9.755-10.226s-2.424-3.279-3.143-4.435c-0.614-0.984-2.219-4.083-2.219-4.083
				s-2.527-4.277-3.819-3.395c-0.761,0.521,0.417,4.962,2.252,9.028c1.976,4.382,4.638,8.403,4.264,8.72
				c-0.874,0.745-5.947-5.171-5.947-5.171s-1.742-3.351-2.946-4.511c-0.726-2.247-2.938-5.464-4.437-4.279
				c-0.277,0.219,1.46,5.485,1.46,5.485s1.747,3.132,2.487,4.679c1.305,2.729,4.338,5.97,5.365,7.74
				c0.854,1.472,0.116,1.295,0.042,1.476c-0.057,0.142-1.478-1.623-3.47-4.005c-1.003-1.2-2.396-2.325-3.342-3.909
				c-0.877-1.466-2.372-3.297-3.3-4.376c-2.628-3.056-4.106-0.818-2.126,2.441c0.754,1.241,1.586,2.586,2.435,3.944
				c3.299,5.285,7.419,9.34,6.999,9.874c-0.545,0.693-7.61-7.169-7.61-7.169s-5.03-3.119-2.1,1.69c3.4,5.58,7.132,9.073,7.306,9.218
				c1.181,0.978,4.281,5.702,8.922,8.44c3.421,2.017,8.415,4.775,10.803,6.087L886.42,1300.72z"/>
			<path style="fill:#F7A491;" d="M991.316,1316.661l-23.966-13.22c0,0-12.796,19.248-14.693,21.165
				c0,0-47.946-15.626-66.237-23.887l-11.268,11.603c3.508,1.696,6.544,2.832,8.221,3.735c3.291,1.772,55.374,30.705,55.374,30.705
				s21.306,10.635,24.9,8.19C967.241,1352.51,991.316,1316.661,991.316,1316.661z"/>
		</g>
		<path style="fill:#3C8F7C;" d="M1017.697,1263.164c4.662,19.129-20.203,61.776-20.203,61.776s-35.421-16.655-41.647-23.832
			c0,0,24.065-41.386,25.642-43.901c7.14-11.393,16.834-11.405,23.155-10.662
			C1009.719,1247.142,1017.697,1263.164,1017.697,1263.164z"/>
		<path style="fill:#184655;" d="M1060.338,1330.369c41.073-12.286,30.075-48.367,29.846-46.996c0.12-1.114,3.988-5.658,5.902-9.542
			c7.976-16.177-2.546-35.662-14.598-42.4c7.993-20.573,0.056-40.31-14.995-48.533c-7.597-4.151-13.988-10.054-19.123-16.882
			c-11.396-15.152-32.122-30.406-57.039-25.426c-24.656,6.286,8.353,20.519,5.085,44.156c-1.657,11.982,3.104,10.264,10.532,19.896
			c-10.693,18.729-4.51,50.164,11.883,64.423C1009.796,1302.813,1018.425,1342.907,1060.338,1330.369z"/>
		<path style="fill:#F7A491;" d="M999.279,1152.004c0,0,9.142,3.066,14.016,12.266c4.872,9.199,2.451,38.656-17.824,48.37
			c-20.275,9.715-29.594-12.345-28.123-28.624C968.818,1167.737,974.69,1146.438,999.279,1152.004z"/>
		<path style="fill:#184655;" d="M1020.5,1186.561c3-15.223,1.825-26.76-9.028-32.331c-10.854-5.571-20.13-11.094-29.843-1.082
			l-2.195,1.233c0,0,18.327,5.049,19.349,14.748c1.023,9.7,10.767,21.23,9.266,25.994c-1.5,4.765-3.231,14.266-3.231,14.266
			l4.014-3.289C1008.832,1206.1,1017.5,1201.785,1020.5,1186.561z"/>
		<path style="fill:#F7A491;" d="M1001.609,1180.734c-1.514,4.204-0.371,8.425,2.556,9.427c2.925,1.003,6.524-1.593,8.039-5.798
			c1.514-4.203,0.37-8.424-2.555-9.426C1006.722,1173.935,1003.123,1176.53,1001.609,1180.734z"/>
		<path style="fill:#FFFFFF;" d="M985.066,1196.967l-13.217,3.211c0,0,1.525,4.945,7.377,3.701
			C986.364,1202.362,985.066,1196.967,985.066,1196.967z"/>
		<path style="fill:#EAB054;" d="M1004.794,1466.657v27.134c0,14.108-11.814,25.545-26.385,25.545h-27.143v-63.257h42.603
			c2.916,0,5.563,1.106,7.52,2.911C1003.488,1460.91,1004.794,1463.635,1004.794,1466.657z"/>
		<path style="fill:#F7CC7F;" d="M1001.39,1458.99h-0.18c-5.6,0-10.139,4.395-10.139,9.815v19.961
			c0,16.884-14.137,30.569-31.575,30.569h-16.525c-17.438,0-31.575-13.686-31.575-30.569v-19.862
			c0-7.083,5.931-12.825,13.247-12.825h69.227C996.786,1456.079,999.433,1457.186,1001.39,1458.99z"/>
	</g>
	<g>
		<path style="fill:#13375B;" d="M1274.937,1306.5l-2.012,1.807c-1.035,0.931-2.593,0.891-3.48-0.087l-35.716-39.397
			c-0.887-0.979-0.767-2.524,0.269-3.454l2.012-1.809c1.036-0.93,2.594-0.891,3.48,0.088l35.716,39.397
			C1276.092,1304.022,1275.972,1305.569,1274.937,1306.5z"/>
		<path style="fill:#F7A491;" d="M1396.026,1274.492c-4.774-3.895-41.692,12.36-41.224,18.019
			c0.469,5.659-25.761,60.513-25.761,60.513l-45.327-36.265l-0.019,0.012c-0.401-1.312-4.698-15.416-4.907-17.938
			c-0.219-2.647-7.878-7.277-11.436-6.597c-3.558,0.683,3.042,5.159,3.476,5.981c1.179,2.237-3.381,3.077-3.381,3.077
			s-13.096-7.212-13.375-11.453c-0.278-4.241-2.981-13.132-5.811-11.272c-1.46,0.96-1.447,7.268-0.991,10.26
			c-0.841-3.396-2.032-7.233-3.192-7.613c-2.118-0.694-3.172,2.01-2.787,3.337s3.806,15.752,4.846,17.375
			c1.016,1.585,22.165,18.684,25.212,22.396c0,0,58.629,67.251,62.803,69.011c3.663,1.542,16.723-21.634,29.061-37.019
			C1375.553,1340.928,1410.944,1286.662,1396.026,1274.492z"/>
		<path style="fill:#F48C7F;" d="M1514.324,1768.991c0,0,8.057,7.888,8.24,10.782c0.182,2.895,0.713,33.907-2.576,36.802
			c-3.289,2.896-12.95,4.948-9.844,8.204c2.347,2.462,20.407,1.936,32.376,1.274c3.493-0.192,7.875-28.164,9.258-32.275
			c2.01-5.971,6.897-19.42,5.071-23.581c-0.892-2.028-5.15-6.195-11.151-10.085c-6.313-4.092-12.353-13.2-12.353-13.2
			L1514.324,1768.991z"/>
		<path style="fill:#F7A491;" d="M1430.868,1787.359c0,0,7.21,20.437,7.219,20.488c0.535,3.238,2.646,11.238,2.646,14.181
			c0,11.058-49.698-9.386-38.561-14.286c1.009-0.443,4.171-3.986,4.503-7.75c0.511-5.799-4.187-13.071-4.187-13.071
			L1430.868,1787.359z"/>
		<g>
			<path style="fill:#355389;" d="M1352.904,1406.807c0,0-3.624,36.636-3.624,37.183c0,59.265-11.708,175.028-9.481,186.169
				c5.432,27.178,63.895,165.813,63.895,165.813l31.597-3.79l-41.174-165.986l15.151-66.811l21.441-132.063L1352.904,1406.807z"/>
			<path style="fill:#13375B;" d="M1458.948,1439.211l5.995,34.724l16.222,142.908l61.775,139.671c0,0-8.689,20.323-21.509,23.179
				l-98.321-143.4l-61.076-183.492l2.145-40.766L1458.948,1439.211z"/>
		</g>
		<path style="fill:#E25A44;" d="M1340.302,1319.576l43.815,4.488c0,0,2.009-36.041,2.009-53.234c0-20.857-1.771-47.724-4.28-47.146
			c-7.046,1.623-16.534,5.526-22.184,13.314C1340.115,1263.948,1340.302,1319.576,1340.302,1319.576z"/>
		<path style="fill:#F47458;" d="M1361.827,1267.151c-0.918,6.359-17.761,179.248-17.761,179.248
			c79.777,38.661,123.798,6.887,123.798,6.887s-2.611-121.404,0.518-137.929c2.07-10.934,4.651-83.58-2.409-85.615
			c-9.061-2.611-19.449-5.384-30.773-6.563c-9.666-1.007-47.215-1.59-53.933,0.674
			C1381.267,1223.853,1365.686,1240.408,1361.827,1267.151z"/>
		<path style="fill:#F47458;" d="M1545.308,1759.916c0,0-18.568,52.458-25.836,54.991c-1.93,0.672-11.19,2.378-12.938,6.487
			c-0.526,1.238,0,5.373,0,5.373h38.703c0,0,4.895-23.114,6.83-33.27c0,0,10.246-24.813,9.107-27.068
			C1560.035,1764.176,1545.308,1759.916,1545.308,1759.916z"/>
		<path style="fill:#F47458;" d="M1443.561,1825.677l-5.692-18.04c0,0-11.952,5.074-17.928,4.229
			c-5.977-0.846-17.644-4.229-17.644-4.229c-23.854,7.879-43.396,11.702-39.841,18.04l0,0H1443.561z"/>
		<g>
			<path style="fill:#F7A491;" d="M1334.153,1393.333c-0.18-0.077-0.829-0.589-1.203-0.897c1.419-16.938,1.163-33.351-4.135-38.9
				c0.126-0.266,1.286-2.735,2.495-5.297c6.14,4.766,9.057,17.424,7.912,37.974c-0.079,1.413-0.483,2.492-0.81,4.255
				C1336.634,1392.43,1335.018,1393.696,1334.153,1393.333z"/>
		</g>
		<path style="fill:#F8A492;" d="M1546.876,1448.231c0.049-0.37,0.056-0.742,0.019-1.113
			c-1.175-11.974-11.082-112.513-12.751-116.786c-1.507-3.859-45.939-67.625-45.939-67.625l-21.84,29.854l42.733,57.194
			c0.958,3.635,16.375,71.504,16.375,71.504s3.16,12.371,4.576,19.781c-0.645,1.785-1.278,3.471-1.841,4.854
			c-1.417,2.957-3.086,5.384-4.604,7.426c-1.91,2.569-5.068,8.182-5.457,9.683c-0.453,1.746-1.268,5.375-1.73,7.564
			c-0.462,2.19-1.095,4.74-1.201,5.93c-0.064,0.723-0.808,2.165-1.381,3.186c-0.853,1.518,0.603,3.309,2.25,2.76
			c1.553-0.519,2.762-2.535,3.506-3.791c2.103-3.547,3.224-10.022,3.747-9.68c0.523,0.343,2.366,11.33,2.657,12.571
			c0.291,1.243,2.502,14.001,3.749,16.333c1.247,2.331,2.898,1.941,3.336,0.481c0.376-1.257-1.377-19.108-1.377-19.108
			s-0.219-2.277,0.775-1.565c0.993,0.712,2.618,16.916,3.31,19.287c0.691,2.37,2.267,3.628,3.604,1.722
			c1.626-2.317-1.171-19.506-1.171-19.506s-0.313-2.16,0.607-1.96c0.92,0.201,2.072,14.013,2.788,15.207
			c0.716,1.193,2.522,1.623,3.384-0.368c1.015-2.346-1.614-17.668-1.614-17.668s0.129-1.22,0.703-0.815
			c0.574,0.405,2.396,12.107,3.582,13.19c0.997,0.911,1.827,0.027,1.827,0.027c2.178-1.491-1.161-12.623-1.128-18.158
			c0.033-5.534-2.525-11.754-1.762-18.344C1546.657,1449.885,1546.791,1448.87,1546.876,1448.231z"/>
		<path style="fill:#F47458;" d="M1522.919,1303.093l-37.956,25.569c0,0-21.393-31.941-32.875-43.313
			c-14.386-14.246,5.24-57.885,14.508-55.416C1487.327,1235.456,1522.919,1303.093,1522.919,1303.093z"/>
		<path style="fill:#F7A491;" d="M1432.409,1185.802l5.678,37.546c0,0-20.733,44.706-33.11,40.828
			c-10.385-3.253-3.996-42.809-3.996-42.809s5.661-21.243,3.964-31.874C1403.246,1178.863,1432.409,1185.802,1432.409,1185.802z"/>
		<path style="fill:#F47458;" d="M1404.944,1189.493c-1.698-10.63,27.465-3.692,27.465-3.692l0.471,3.114
			c-0.854,2.084-1.896,3.866-3.163,5.234c-6.515,7.034-16.696,11.26-25.5,11.579
			C1405.099,1199.996,1405.64,1193.853,1404.944,1189.493z"/>
		<g>
			<path style="fill:#F7A491;" d="M1437.194,1132.684c0.824-0.301,6.607,42.763-4.367,54.611
				c-10.973,11.849-32.354,15.727-40.022,6.395c-8.483-10.322-8.057-56.604,9.004-68.793
				C1418.87,1112.707,1437.194,1132.684,1437.194,1132.684z"/>
			<path style="fill:#184655;" d="M1408.304,1101.86c13.188,2.698,21.73,10.784,24.868,14.231
				c5.987,0.709,14.126,4.029,22.531,17.992c10.333,17.168,2.702,36.188-9.328,45.521c-12.029,9.332-11.862,20.112-11.862,20.112
				l-1.901-5.576c-1.403-4.224-1.977-8.703-1.506-13.133c0.281-2.658,0.849-5.533,1.945-7.896
				c2.893-6.232-6.215-10.373-8.769-15.558c-1.967-3.993-2.062-13.127-5.16-19.727l-3.7-5.038c0,0-8.536-6.666-16.888-4.784
				C1390.183,1129.886,1391.384,1098.399,1408.304,1101.86z"/>
			<path style="fill:#F7A491;" d="M1424.843,1165.217c-0.087,5.254,2.294,9.555,5.317,9.606c3.022,0.052,5.544-4.165,5.631-9.419
				s-2.292-9.555-5.316-9.607C1427.452,1155.746,1424.93,1159.963,1424.843,1165.217z"/>
		</g>
		<path style="fill:#FFFFFF;" d="M1407.022,1177.356l-16.54-0.858c0,0,0.056,6.323,7.318,6.912
			C1406.657,1184.127,1407.022,1177.356,1407.022,1177.356z"/>
	</g>
	<g>
		<path style="fill:#A34B3D;" d="M2924.547,1442.267c-6.542-18.563-0.059-36.501,5.343-45.755
			c5.401-9.255,11.981-23.262,22.117-24.709c14.881-2.125,22.798-3.387,33.522,2.931c9.132,5.379,14.512,9.317,18.639,23.237
			c5.679,19.158,11.193,43.292,8.096,45.671c-10.271,7.89-39.539,8.438-53.819,7.854
			C2936.282,1450.591,2924.547,1442.267,2924.547,1442.267z"/>
		<path style="fill:#3C8F7C;" d="M2966.099,1456.544c0,0,34.646-4.228,46.266,1.786c11.621,6.016,17.983,77.633,17.983,77.633
			l-10.32,3.138c0,0,1.468,49.593-6.417,53.036c-7.886,3.445-63.292-7.245-75.925-19.888c-12.634-12.641-3.18-109.082,8.012-117.088
			C2948.834,1452.918,2966.411,1456.519,2966.099,1456.544z"/>
		<path style="fill:#F7A491;" d="M2644.18,1762.058c0,0-2.372,25.918-0.813,34.369c0.209,1.131,0.669,2.564,1.205,4.144
			c1.606,4.738-2.794,19.207-2.794,19.207l-59.021,0.218c-3.214,0.013-1.064-2.027,1.55-3.897c4.281-3.063,7.729-5.08,21.362-11.457
			c0.889-0.417,4.131-2.42,5.301-3.113c2.964-1.758,5.954-4.546,8.532-7.342c4.296-4.659,4.948-27.5,4.948-27.5L2644.18,1762.058z"
			/>
		<path style="fill:#355389;" d="M2610.979,1801.521c15.556,4.193,27.125,1.617,33.61-0.901c1.606,4.731,4.589,20.354,2.825,20.728
			c-7.554,1.596-27.326,2.803-69.731,2.135c-1.519-0.024-1.333-5.243-0.344-6.395
			C2580.074,1813.906,2609.807,1802.218,2610.979,1801.521z"/>
		<path style="fill:#D95B3F;" d="M2718.201,1454.403c0,0-0.839,36.995-11.435,60.685c-10.319,23.074-59.706,79.982-72.833,113.197
			c4.058,18.735,15.212,45.067,14.404,65.832c-0.914,23.533,0.454,85.797,0.454,85.797l-26.504,0.841l-34.769-160.679
			l52.395-173.366l23.774-42.099L2718.201,1454.403z"/>
		<path style="fill:#F7A491;" d="M2776.502,1731.82c0,0,11.932,24.961,17.954,31.83c3.225,3.678,12.741,9.58,12.909,14.703
			c0.169,5.123-55.441,39.834-55.441,39.834c-2.93,1.763-2.076-1.271-0.705-4.403c2.244-5.128,4.296-8.85,13.275-22.099
			c0.586-0.864,2.458-4.461,3.148-5.73c1.752-3.22,2.966-7.394,3.8-11.353c1.388-6.595-10.44-27.81-10.44-27.81L2776.502,1731.82z"
			/>
		<path style="fill:#355389;" d="M2767.647,1785.946c16.487-4.646,25.651-13.298,30.205-19.131
			c4.04,3.444,15.177,11.261,13.819,12.615c-10.673,10.646-22.213,24.206-61.305,46.694c-1.398,0.805-5.252-6.05-4.975-7.642
			C2746.16,1814.089,2766.955,1787.22,2767.647,1785.946z"/>
		<g>
			<path style="fill:#F7A491;" d="M3040.613,1518.485c7.426,4.069,25.423,20.558,31.521,26.173c0.117,0.708,0.98,4.784,5.911,9.658
				c3.485,3.442,6.57,11.687,8.473,9.128c1.902-2.557-3.821-8.843-1.448-9.077c2.374-0.232,15.227,12.1,16.951,9.781
				c1.724-2.318-11.194-13.161-9.071-13.369c2.124-0.209,12.797,10.965,15.234,7.688c2.438-3.275-13.778-11.979-12.47-13.738
				c1.308-1.759,11.385,3.993,13.346,1.357c1.962-2.637-14.141-7.201-12.891-7.324c1.248-0.123,10.293-0.597,10.222-2.34
				c-0.079-1.971-23.231-3.21-26.308-6.39l0,0c-6.743-9.062-18.781-25.635-30.179-32.42c-13.943-8.303-46.031-25.715-46.031-25.715
				l-13.6,20.798C2990.274,1492.695,3031.807,1513.66,3040.613,1518.485z"/>
		</g>
		<path style="fill:#F47458;" d="M2718.512,1427.926c0,0,14.529,34.027,14.678,59.982c0.144,25.278-21.294,97.533-19.513,133.207
			c11.439,15.377,32.48,34.732,40.329,53.972c8.896,21.804,35.882,77.924,35.882,77.924l-23.781,11.737l-98.079-131.893
			l-20.764-155.511l-4.019-51.511L2718.512,1427.926z"/>
		<path style="fill:#F7A491;" d="M3048.477,1769.306c0,0,10.781,9.905,10.807,9.923c1.511,1.119,5.563,3.57,6.738,4.779
			c4.42,4.547-23.896,15.881-21.34,9.441c0.232-0.582,0.666-5.711-0.703-7.39c-2.109-2.587-5.906-6.273-5.906-6.273
			L3048.477,1769.306z"/>
		<path style="fill:#184655;" d="M3044.69,1793.357c0,0,6.081-3.244,8.841-5.27c2.762-2.026,3.109-8.082,5.592-8.971
			c2.731-0.978,14.211,10.771,14.211,10.771s-22.437,24.399-34.178,32.529c-2.527,1.752-5.593,1.194-6.678,1.213
			C3028.332,1823.704,3038.168,1806.071,3044.69,1793.357z"/>
		<path style="fill:#F7A491;" d="M2895.771,1787.941c0,0-3.349,16.219-3.352,16.252c-0.209,2.117-0.237,7.479-0.729,9.322
			c-1.843,6.928-29.136-14.109-21.439-15.336c0.698-0.11,4.159-1.503,5.352-3.641c2.069-3.719,4.035-10.684,4.035-10.684
			L2895.771,1787.941z"/>
		<path style="fill:#184655;" d="M2870.347,1798.135c0,0,6.643,4.052,10.194,5.571c3.551,1.519,10.045-2.699,12.336-0.794
			c2.521,2.097-1.584,20.674-1.584,20.674s-46.688-12.386-56.621-18.815C2830.736,1802.225,2854.299,1799.12,2870.347,1798.135z"/>
		<path style="fill:#355389;" d="M2921.261,1562.6l-28.932,115.729l-18.293,112.073l22.776,3.072c0,0,40.259-102.698,43.227-112.148
			c6.359-20.251,58.943-76.06,58.943-76.06L2921.261,1562.6z"/>
		<path style="fill:#184655;" d="M2998.344,1562.076c0,0,8.246,105.648,10.031,115.961c1.787,10.312,44.037,89.688,44.037,89.688
			l-16.318,17.749c0,0-68.841-84.917-71.896-92.014c-4.792-11.128-37.191-156.783-37.191-156.783L2998.344,1562.076z"/>
		<g>
			<path style="fill:#F7A491;" d="M2866.142,1495.227c-8.605,3.021-34.764,5.569-43.649,6.414c-0.651-0.418-4.535-2.662-11.988-2.22
				c-5.266,0.313-14.085-3.15-13.408,0.216s9.831,3.308,8.309,5.377c-1.522,2.07-20.65,3.489-20.037,6.54s18.597,0.508,17.234,2.359
				c-1.363,1.852-17.994,2.358-17.128,6.672c0.867,4.314,19.514-2.414,19.979-0.1c0.466,2.314-11.396,6.248-10.698,9.72
				s15.948-6.146,15.146-5.057c-0.802,1.089-6.937,8.679-5.489,9.878c1.636,1.356,19.302-16.307,24.062-16.482l0,0
				c12.109,1.122,34.043,3.411,47.684-0.836c16.688-5.195,53.733-18.371,53.733-18.371l-6.852-25.879
				C2923.038,1473.458,2876.348,1491.645,2866.142,1495.227z"/>
			<path style="fill:#F48C7F;" d="M2809.02,1507.784c0.607,1.265,1.521,2.307,2.554,3.209c0.206,0.097,3.353,3.266,8.314,2.309
				C2816.823,1512.809,2813.425,1512.246,2809.02,1507.784z"/>
		</g>
		<path style="fill:#F7CC7F;" d="M2892.427,1483.291c0,0,1.238,5.82,23.566,25.254l46.651-24.455l-19.998-25.756L2892.427,1483.291z
			"/>
		<path style="fill:#FAE0B2;" d="M2961.084,1460.336c0,0-16-2.651-17.753-2.651c-15.179,5.836-41.101,128.17-37.073,152.307
			c26.832,5.765,102.117,6.018,102.117,6.018s-0.164-23.236-3.922-35.208c-6.508-20.731-10.194-68.171-10.194-76.532
			c0-4.915,25.431,12.117,25.431,12.117l10.658-38.534c0,0-32.469-13.05-43.848-15.397
			C2983.328,1461.802,2961.084,1460.336,2961.084,1460.336z"/>
		<g>
			<path style="fill:#3C8F7C;" d="M2914.228,1542.488c5.584-21.558,30.856-78.65,37.324-84.154l-6.258-2.016
				c-2.733,2.629-28.413,57.842-32.734,78.783L2914.228,1542.488z"/>
		</g>
		<g>
			<path style="fill:#3C8F7C;" d="M3004.732,1564.221l3.643-5.803c-0.309-0.195-31.067-19.844-34.537-44.913
				c-3.504-25.332,14.34-51.949,14.521-52.215l-5.66-3.858c-0.798,1.172-19.515,29.03-15.644,57.012
				C2970.964,1542.696,3003.355,1563.354,3004.732,1564.221z"/>
		</g>
		<path style="fill:#F7A491;" d="M2952.438,1445.588c0,0,0.515,17.116-1.092,18.725c-1.606,1.607-3.849,4.274-1.486,8.356
			c2.361,4.084,12.618,1.477,17.396-0.86c4.588-2.243,7.549-6.417,7.549-6.417l-2.394-27.11L2952.438,1445.588z"/>
		<path style="fill:#B75742;" d="M2959.256,1452.68c3.293-1.152,9.049-3.381,13.49-10.603l-0.335-3.796l-19.976,7.307
			c0,0,0.127,4.177,0.061,8.596C2955.295,1454.068,2957.686,1453.23,2959.256,1452.68z"/>
		<path style="fill:#F7A491;" d="M2975.93,1418.924c0,0,0.485-10.063,6.662-8.108s1.469,17.142-3.651,16.642
			C2973.819,1426.959,2975.93,1418.924,2975.93,1418.924z"/>
		<path style="fill:#F7A491;" d="M2956.518,1386.053c0,0-9.665-0.215-14.606,7.307c-4.938,7.522-10.309,29.017-2.147,43.845
			c8.163,14.83,18.579,11.178,22.875,9.672c4.295-1.504,12.78-4.836,17.074-18.698
			C2984.01,1414.316,2980.895,1383.151,2956.518,1386.053z"/>
		<path style="fill:#FFFFFF;" d="M2943.639,1429.211l18.648,0.739c0,0-0.71,7.07-8.92,6.983
			C2943.356,1436.826,2943.639,1429.211,2943.639,1429.211z"/>
		<path style="fill:#F8A492;" d="M2655.276,1382.382c0.8-4.145,13.017-81.267,13.017-81.267l-35.103,13.766l-7.692,59.641
			c-0.969,3.073-15.828,76.084-21.26,99.715c-1.09,4.746-4.518,8.564-9.066,10.292c-0.025,0.009-0.049,0.018-0.073,0.028
			c-3.048,1.167-8.828,4.273-9.981,5.353c-1.341,1.256-4.021,3.934-5.611,5.567c-1.591,1.632-3.525,3.482-4.264,4.447
			c-0.449,0.588-1.876,1.423-2.925,1.987c-1.563,0.841-1.281,3.179,0.44,3.606c1.621,0.402,3.762-0.673,5.09-1.348
			c3.745-1.904,8.237-6.865,8.503-6.285c0.265,0.58-4.124,11.047-4.55,12.274c-0.425,1.229-5.461,13.42-5.653,16.109
			c-0.192,2.688,1.444,3.256,2.618,2.237c1.01-0.875,9.211-17.201,9.211-17.201s1.051-2.08,1.521-0.926
			c0.471,1.156-6.947,15.994-7.641,18.413c-0.693,2.42-0.02,4.362,2.173,3.453c2.666-1.107,9.607-17.432,9.607-17.432
			s0.906-2.032,1.59-1.356c0.685,0.677-5.838,13.195-5.87,14.615c-0.031,1.418,1.295,2.775,3.123,1.533
			c2.151-1.466,8.223-16.092,8.223-16.092s0.775-0.98,1.051-0.318c0.274,0.662-4.523,11.733-4.089,13.313
			c0.366,1.329,1.563,1.022,1.563,1.022c2.691-0.094,5.868-11.502,8.909-16.248
			C2611.179,1506.536,2654.391,1386.974,2655.276,1382.382z"/>
		<path style="fill:#0E2E35;" d="M2640.564,1225.528c-0.708-17.15,1.805-34.086,9.44-50.052
			c6.569-13.737,22.822-21.532,37.646-21.552c47.068-0.062,53.054,62.436,83.015,86.542c9.155,7.366,19.389,13.366,28.051,21.31
			c31.988,29.333,17.58,83.631-11.792,109.347c-20.384,17.845-52.418,27.983-77.54,14.034c-13.112-7.282-23.067-19.387-30.16-32.649
			c-10.065-18.823-16.554-40.541-23.713-60.602C2647.891,1270.554,2641.506,1248.325,2640.564,1225.528z"/>
		<path style="fill:#F48C7F;" d="M2789.479,1484.47c0.092-0.388-15.551-66.847-21.871-81.544
			c-6.32-14.694-30.891-82.948-30.891-82.948l31.803-6.95c0,0,20.508,53.412,29.858,77.56c9.351,24.146,5.354,68.669,5.771,81.233
			c0.007,0.182,1.373,10.626,1.381,10.805l0,0c0.318,1.388,0.613,2.55,0.751,2.775c0.379,0.613,1.47,4.828,1.519,5.191
			c0.05,0.363,0.982,1.789,1.361,2.402c0.379,0.615,1.242,9.149,1.431,10.529c0.187,1.38-0.425,4.495-0.425,4.495l0.334,5.723
			c0.245,4.202-4.106,3.092-4.106,3.092c0.103,1.982-0.588,3.021-1.701,3.394c-1.114,0.373-2.432,0.053-2.642,0.137
			c-0.211,0.084-0.293,0.706-0.293,0.706c0.117,1.26-1.305,2.229-2.222,2.409c-0.918,0.181-2.554-0.43-3.015-0.977
			c-0.463-0.547-0.784-0.467-0.784-0.467c-0.927,0.792-4.479,0.758-5.3-0.389c-0.821-1.145-1.567-7.182-1.936-7.724
			c-0.37-0.54-1.161-1.468-1.279-2.34s-3.027-7.057-3.195-8.292c-0.168-1.233,1.632-5.398,2.031-7.894
			c0.4-2.495,2.829-6.375,3.418-7.49c0.229-0.437,0.166-1.861,0.004-3.437L2789.479,1484.47z"/>
		<path style="fill:#13375B;" d="M2632.876,1308.576c14.702-44.629,31.143-42.727,31.143-42.727l-12.715,93.822
			c-9.078-2.482-20.899-8.012-29.968-10.576C2624.342,1334.988,2629.256,1319.565,2632.876,1308.576z"/>
		<path style="fill:#355389;" d="M2701.644,1257.838c0,0,27.087-1.73,37.803,9.984s-23.772,104.383-25.72,119.291
			c-1.949,14.91,9.933,54.553,9.933,54.553s-63.632,12.843-81.817,0.771c0,0-1.948-107.21,0-117.861
			c1.948-10.649,18.186-53.959,22.084-58.22C2667.822,1262.096,2701.644,1257.838,2701.644,1257.838z"/>
		<path style="fill:#F7A491;" d="M2692.625,1221.536c0,0,0.141,0.801,0.392,2.161c1.208,6.531,5.859,28.199,9.001,34.155
			c3.797,7.198-12.998,30.157-29.164,27.355c-4.813-0.834,4.067-21.095,3.641-23.241c-0.816-4.108-1.924-9.713-3.059-15.459
			c-0.639-3.241-1.286-6.528-1.895-9.617c-1.729-8.78-3.139-15.959-3.139-15.959L2692.625,1221.536z"/>
		<path style="fill:#F47458;" d="M2693.017,1223.697c-0.251-1.36-0.392-2.161-0.392-2.161l-24.223-0.605
			c0,0,1.41,7.179,3.139,15.959c0.605,3.071,1.248,6.339,1.885,9.563c3.74-0.551,7.646-2.375,11.566-5.814
			c4.271-3.75,7.07-8.257,8.76-13.068C2693.453,1226.034,2693.205,1224.711,2693.017,1223.697z"/>
		<path style="fill:#F7A491;" d="M2676.322,1166.314c0,0,11.417-1.324,18.574,7.961c7.156,9.283,14.871,37.992-2.908,53.601
			c-17.778,15.608-35.345-2.059-37.949-20.792C2651.434,1188.352,2650.422,1165.638,2676.322,1166.314z"/>
		<path style="fill:#F7A491;" d="M2648.779,1206.807c2.121,4.137,5.684,6.429,7.956,5.117c2.271-1.312,2.394-5.729,0.271-9.865
			c-2.123-4.138-5.685-6.429-7.956-5.117C2646.779,1198.252,2646.657,1202.67,2648.779,1206.807z"/>
		<path style="fill:#0E2E35;" d="M2675.045,1163.244c0,0,15.253,27.302,26.166,28.563c10.912,1.262,12.344,15.769,12.344,15.769
			s-3.9-33.427-14.704-39.874C2688.048,1161.256,2675.045,1163.244,2675.045,1163.244z"/>
		<path style="fill:#F7A491;" d="M2698.349,1198.668c-0.888,4.848,0.897,9.294,3.987,9.931c3.088,0.636,6.312-2.778,7.2-7.627
			c0.887-4.848-0.898-9.294-3.987-9.931C2702.459,1190.405,2699.236,1193.819,2698.349,1198.668z"/>
		<path style="fill:#FFFFFF;" d="M2687.657,1211.856l-22.819,0.903c0,0,0.869,8.652,10.915,8.545
			C2688.003,1221.175,2687.657,1211.856,2687.657,1211.856z"/>
		<path style="fill:#355389;" d="M2751.646,1359.883c0,0-35.115-42.045-41.457-57.604c-6.341-15.559,3.148-38.86,17.956-40.688
			c14.809-1.828,51.867,67.176,51.867,67.176L2751.646,1359.883z"/>
		<path style="fill:#A34B3D;" d="M2952.896,1383.361c0,0,13.504,28.551,28.279,27.041c14.776-1.511,2.816-21.457,2.816-21.457
			s-16.744-6.383-17.541-6.383S2952.896,1383.361,2952.896,1383.361z"/>
	</g>
	<g>
		<path style="fill:#13375B;" d="M2247.595,1234.455c0.288-0.574,0.461-0.887,0.461-0.887l-0.025-0.242
			c0.846-2.098,1.771-4.183,2.789-6.249c6.749-13.69,23.447-21.459,38.674-21.478c4.965-0.007,9.478,0.654,13.624,1.853
			c6.235,2.804,21.477,12.51,25.442,41.418c1.442,10.511-0.787,20.544-5.507,29.02c4.104,2.578,9.492,7.805,13.397,18.354
			c7.173,19.38,43.037,23.687,46.624,49.526c3.585,25.84-33.713,72.494-73.164,42.348c-30.03-22.947-25.148-66.685-21.105-86.267
			c-9.366,1.291-19.434-0.478-29.105-6.325c-12.309-7.442-17.303-17.482-18.643-27.313
			C2241.37,1256.727,2243.352,1245.396,2247.595,1234.455z"/>
		<g>
			<path style="fill:#F47458;" d="M2282.653,1301.986c24.444,0,41.857-22.145,42.586-23.086c0.728-0.941,0.556-2.293-0.384-3.021
				c-0.938-0.728-2.289-0.557-3.018,0.383l0,0c-0.166,0.215-16.877,21.417-39.185,21.417c-1.188,0-2.151,0.964-2.151,2.153
				S2281.465,1301.986,2282.653,1301.986z"/>
		</g>
		<path style="fill:#F8A492;" d="M2199.354,1500.66c0.258-0.189,0.49-0.406,0.696-0.649c6.668-7.838,62.629-73.68,64.264-77.25
			c1.479-3.222,14.248-68.552,14.248-68.552l-31.378,4.241l-9.739,60.375c-1.666,2.751-34.243,52.591-34.243,52.591
			s-5.729,9.301-9.446,14.577c-1.482,0.661-2.898,1.272-4.084,1.747c-2.663,0.881-5.151,1.291-7.312,1.566
			c-2.718,0.345-8.052,1.729-9.208,2.38c-1.344,0.757-4.063,2.409-5.685,3.425c-1.624,1.015-3.569,2.14-4.364,2.779
			c-0.482,0.391-1.814,0.788-2.781,1.039c-1.441,0.375-1.678,2.338-0.357,3.03c1.242,0.651,3.203,0.2,4.42-0.085
			c3.435-0.809,8.088-3.963,8.188-3.436c0.102,0.526-5.562,8.191-6.152,9.109s-7.125,9.862-7.816,12.018
			c-0.691,2.156,0.531,2.943,1.69,2.346c0.998-0.513,10.937-12.2,10.937-12.2s1.271-1.488,1.426-0.45
			c0.154,1.037-8.85,11.666-9.896,13.501c-1.047,1.836-0.883,3.556,1.087,3.249c2.396-0.372,11.306-12.31,11.306-12.31
			s1.143-1.478,1.566-0.789c0.425,0.688-7.387,9.604-7.695,10.756c-0.309,1.151,0.504,2.521,2.242,1.871
			c2.048-0.766,9.91-11.491,9.91-11.491s0.828-0.645,0.92-0.051c0.093,0.596-6.023,8.673-5.983,10.05
			c0.034,1.155,1.071,1.144,1.071,1.144c2.215,0.461,7.075-8.215,10.501-11.482s5.729-8.542,10.238-11.985
			C2198.206,1501.507,2198.911,1500.987,2199.354,1500.66z"/>
		<path style="fill:#B75742;" d="M2186.644,1520.446v25.351c0,13.18,11.022,23.867,24.619,23.867h25.327v-59.101h-39.752
			c-2.722,0-5.191,1.034-7.019,2.72C2187.862,1515.077,2186.644,1517.623,2186.644,1520.446z"/>
		<g>
			<path style="fill:#B75742;" d="M2273.679,1521.387l-7.521-0.151l4.239-198.275c-7.883,1.411-14.483,7.075-16.723,14.732
				l-52.326,179.048l-7.239-1.988l52.329-179.047c3.506-11.999,14.94-20.379,27.806-20.379h3.84L2273.679,1521.387z"/>
		</g>
		<path style="fill:#F47458;" d="M2189.819,1513.283h0.168c5.226,0,9.46,4.105,9.46,9.171v18.648
			c0,15.773,13.191,28.562,29.463,28.562h15.42c16.271,0,29.463-12.788,29.463-28.562v-18.557c0-6.618-5.533-11.982-12.361-11.982
			h-64.594C2194.116,1510.563,2191.646,1511.598,2189.819,1513.283z"/>
		<path style="fill:#F7A491;" d="M2381.25,1756.271c0,0,13.855,12.73,13.887,12.754c1.942,1.438,7.15,4.587,8.662,6.142
			c5.678,5.843-30.712,20.408-27.426,12.134c0.298-0.749,0.855-7.34-0.904-9.498c-2.712-3.324-7.591-8.062-7.591-8.062
			L2381.25,1756.271z"/>
		<path style="fill:#184655;" d="M2376.384,1787.184c0,0,7.815-4.169,11.362-6.773c3.548-2.604,3.996-10.387,7.186-11.529
			c3.512-1.256,18.263,13.842,18.263,13.842s-28.833,31.357-43.923,41.807c-3.249,2.251-7.189,1.533-8.581,1.559
			C2355.359,1826.182,2368.002,1803.521,2376.384,1787.184z"/>
		<path style="fill:#F7A491;" d="M2206.745,1780.957c0,0-4.303,20.845-4.308,20.888c-0.268,2.722-0.305,9.612-0.935,11.981
			c-2.368,8.904-37.444-18.134-27.553-19.709c0.896-0.143,5.345-1.932,6.875-4.68c2.662-4.779,5.188-13.729,5.188-13.729
			L2206.745,1780.957z"/>
		<path style="fill:#184655;" d="M2174.07,1794.059c0,0,8.539,5.207,13.102,7.159c4.563,1.953,12.911-3.467,15.854-1.02
			c3.24,2.694-2.035,26.569-2.035,26.569s-60.003-15.916-72.769-24.18C2123.165,1799.314,2153.446,1795.326,2174.07,1794.059z"/>
		<path style="fill:#3C8F7C;" d="M2239.037,1494.986l-37.182,148.73l-23.508,144.033l29.271,3.948
			c0,0,41.231-110.147,42.379-122.824c1.147-12.676,21.845-71.939,21.845-71.939L2239.037,1494.986z"/>
		<path style="fill:#96D9C9;" d="M2325.818,1477.769c0,0-2.784,142.605-0.488,155.858s64.59,126.319,64.59,126.319l-20.973,22.812
			c0,0-89.131-103.413-93.059-112.535c-6.157-14.301-36.561-175.53-36.561-175.53L2325.818,1477.769z"/>
		<path style="fill:#F8A492;" d="M2339.448,1524.285c0.157-0.279,0.28-0.572,0.368-0.879c2.861-9.887,26.849-92.922,26.874-96.85
			c0.023-3.545-15.157-68.355-15.157-68.355l-26.865,16.767l15.908,59.048c-0.389,3.193-9.626,62.024-9.626,62.024
			s-1.405,10.835-2.627,17.175c-1.08,1.212-2.12,2.351-3.006,3.271c-2.065,1.898-4.167,3.295-6.023,4.434
			c-2.336,1.433-6.632,4.887-7.418,5.955c-0.915,1.244-2.714,3.867-3.777,5.46c-1.063,1.593-2.375,3.418-2.837,4.328
			c-0.28,0.554-1.33,1.464-2.11,2.091c-1.16,0.936-0.568,2.821,0.919,2.91c1.4,0.083,3.003-1.135,3.995-1.896
			c2.799-2.149,5.747-6.938,6.055-6.498c0.308,0.438-1.709,9.755-1.87,10.834c-0.162,1.08-2.445,11.92-2.192,14.17
			c0.255,2.25,1.693,2.466,2.506,1.445c0.698-0.879,4.962-15.62,4.962-15.62s0.548-1.879,1.113-0.997
			c0.566,0.881-3.277,14.273-3.479,16.377c-0.201,2.104,0.655,3.605,2.325,2.517c2.03-1.324,5.253-15.871,5.253-15.871
			s0.436-1.816,1.104-1.363s-2.792,11.792-2.601,12.97c0.191,1.177,1.495,2.093,2.813,0.784c1.553-1.54,4.316-14.551,4.316-14.551
			s0.49-0.928,0.818-0.424c0.329,0.504-1.931,10.382-1.328,11.621c0.505,1.04,1.446,0.603,1.446,0.603
			c2.208-0.49,3.078-10.398,4.859-14.786c1.781-4.387,1.715-10.142,4.413-15.136
			C2338.749,1525.528,2339.178,1524.765,2339.448,1524.285z"/>
		<path style="fill:#F7CC7F;" d="M2299.477,1309.498c0,0,26.346-1.677,36.768,9.669c10.422,11.344-23.121,101.088-25.016,115.527
			c-1.895,14.438,15.549,43.228,15.549,43.228s-72.506,33.927-90.193,22.237c0,0,2.836-115.716,4.73-126.029
			c1.896-10.314,17.688-52.258,21.479-56.384C2266.583,1313.621,2299.477,1309.498,2299.477,1309.498z"/>
		<path style="fill:#F47458;" d="M2330.545,1405.402c0,0-22.172-44.021-24.548-58.951c-2.377-14.928,10.698-33.399,24.046-31.971
			c13.347,1.429,31.711,69.466,31.711,69.466L2330.545,1405.402z"/>
		<path style="fill:#F7A491;" d="M2294.604,1272.98c0,0,0.145,0.798,0.403,2.154c1.241,6.51,6.018,28.103,9.245,34.039
			c3.9,7.174-13.353,30.054-29.959,27.262c-4.943-0.831,4.178-21.022,3.74-23.162c-0.839-4.094-1.979-9.68-3.143-15.406
			c-0.656-3.23-1.321-6.507-1.946-9.586c-1.776-8.748-3.226-15.903-3.226-15.903L2294.604,1272.98z"/>
		<path style="fill:#F47458;" d="M2295.007,1275.135c-0.259-1.356-0.403-2.154-0.403-2.154l-24.885-0.603
			c0,0,1.449,7.155,3.226,15.903c0.622,3.063,1.282,6.318,1.936,9.533c3.843-0.552,7.856-2.369,11.882-5.797
			c4.388-3.738,7.264-8.229,9-13.024C2295.455,1277.464,2295.199,1276.145,2295.007,1275.135z"/>
		<path style="fill:#F7A491;" d="M2277.855,1217.945c0,0,11.729-1.317,19.081,7.934c7.353,9.252,15.276,37.863-2.987,53.42
			c-18.264,15.556-36.31-2.053-38.984-20.722C2252.289,1239.907,2251.249,1217.272,2277.855,1217.945z"/>
		<path style="fill:#F7A491;" d="M2249.561,1258.302c2.181,4.122,5.84,6.405,8.174,5.099c2.334-1.306,2.459-5.709,0.278-9.832
			c-2.18-4.123-5.839-6.406-8.173-5.1S2247.381,1254.178,2249.561,1258.302z"/>
		<path style="fill:#13375B;" d="M2276.543,1214.887c0,0,15.671,27.208,26.88,28.466c11.21,1.257,12.682,15.714,12.682,15.714
			s-4.008-33.313-15.105-39.737C2289.902,1212.904,2276.543,1214.887,2276.543,1214.887z"/>
		<path style="fill:#F7A491;" d="M2300.483,1250.189c-0.911,4.832,0.922,9.263,4.095,9.897c3.174,0.635,6.484-2.769,7.396-7.6
			c0.912-4.832-0.921-9.264-4.094-9.897C2304.707,1241.955,2301.395,1245.357,2300.483,1250.189z"/>
		<path style="fill:#FFFFFF;" d="M2287.024,1266.29l-16.69,3.569c0,0,1.739,6.262,9.124,4.903
			C2288.464,1273.108,2287.024,1266.29,2287.024,1266.29z"/>
	</g>
	<g>
		<path style="opacity:0.8;fill:#F0FBFF;" d="M2740.013,418.005c-5.384-17.243-26.352-30.106-51.417-30.106
			c-4.602,0-9.064,0.436-13.319,1.25c-12.371-19.467-39.218-32.955-70.352-32.955c-8.049,0-15.812,0.901-23.112,2.575
			c-16.76-20.423-47.209-34.078-81.995-34.078c-41.386,0-76.636,19.329-89.992,46.388c-9.454-3.879-20.339-6.098-31.932-6.098
			c-36.277,0-65.685,21.64-65.685,48.334c0,1.582,0.111,3.146,0.313,4.69H2740.013z"/>
		<path style="opacity:0.8;fill:#F0FBFF;" d="M2807.598,1106.474c0,1.285,0.09,2.556,0.254,3.809h320.982
			c1.394-6.728,2.593-13.78,3.585-21.146c-5.753-2.114-12.24-3.308-19.108-3.308c-3.738,0-7.363,0.354-10.819,1.016
			c-10.048-15.813-31.854-26.768-57.142-26.768c-6.537,0-12.843,0.732-18.771,2.092c-13.613-16.588-38.346-27.68-66.6-27.68
			c-33.615,0-62.246,15.699-73.094,37.678c-7.68-3.15-16.521-4.952-25.937-4.952
			C2831.483,1067.216,2807.598,1084.792,2807.598,1106.474z"/>
		<path style="opacity:0.8;fill:#F0FBFF;" d="M2483.587,937.694c-3.749-13.048-18.353-22.783-35.81-22.783
			c-3.204,0-6.313,0.33-9.275,0.947c-8.616-14.732-27.314-24.94-48.996-24.94c-5.606,0-11.013,0.683-16.097,1.949
			c-11.673-15.455-32.88-25.789-57.106-25.789c-28.823,0-53.373,14.628-62.675,35.104c-6.585-2.936-14.165-4.615-22.239-4.615
			c-25.264,0-45.746,16.377-45.746,36.578c0,1.197,0.078,2.381,0.219,3.549H2483.587z"/>
		<path style="opacity:0.8;fill:#F0FBFF;" d="M1670.465,587.833c3.603-11.378,17.637-19.867,34.412-19.867
			c3.08,0,6.067,0.288,8.915,0.825c8.28-12.846,26.249-21.747,47.085-21.747c5.387,0,10.582,0.595,15.469,1.699
			c11.217-13.477,31.596-22.488,54.878-22.488c27.7,0,51.292,12.755,60.231,30.611c6.327-2.56,13.612-4.024,21.371-4.024
			c24.279,0,43.962,14.28,43.962,31.896c0,1.044-0.074,2.076-0.21,3.095H1670.465z"/>
	</g>
	<ellipse style="fill:#184655;" cx="1220.762" cy="670.804" rx="390.648" ry="113.76"/>
	<path style="fill:#50BFA5;" d="M1220.763,772.563c-103.242,0-200.151-11.663-272.875-32.841
		c-66.231-19.287-105.773-45.051-105.773-68.919c0-23.867,39.542-49.631,105.773-68.919
		c72.725-21.177,169.633-32.841,272.875-32.841s200.151,11.664,272.875,32.841c66.231,19.288,105.772,45.052,105.772,68.919
		c0,23.868-39.541,49.632-105.772,68.919C1420.914,760.9,1324.005,772.563,1220.763,772.563z"/>
	<g>
		<path style="fill:#FFFFFF;" d="M1030.329,668.563c8.322,4.232,12.263,11.817,12.263,20.876
			c-0.142,17.809-10.949,32.265-31.825,32.265h-47.893V619.5h43.654c17.666,0,31.831,13.731,31.831,31.397
			C1038.359,657.019,1035.292,664.474,1030.329,668.563z M988.131,642.86v16.786h16.501c10.366,0,10.366-16.786-0.149-16.786
			H988.131z M988.131,681.117v17.369h20.882c10.509,0,10.366-17.369-0.149-17.369H988.131z"/>
		<path style="fill:#FFFFFF;" d="M1056.81,670.751c0-70.665,104.832-70.665,104.832,0
			C1161.642,741.558,1056.81,741.558,1056.81,670.751z M1134.923,670.751c0-36.795-51.251-36.795-51.251,0
			C1083.672,707.83,1134.923,707.83,1134.923,670.751z"/>
		<path style="fill:#FFFFFF;" d="M1175.135,670.751c0-70.665,104.832-70.665,104.832,0
			C1279.967,741.558,1175.135,741.558,1175.135,670.751z M1253.247,670.751c0-36.795-51.25-36.795-51.25,0
			C1201.997,707.83,1253.247,707.83,1253.247,670.751z"/>
		<path style="fill:#FFFFFF;" d="M1299.892,721.704V619.5c8.756,0,17.518,0,26.57,0v38.697h1.896
			c26.137,0,24.823-19.568,24.823-38.697c8.904,0,17.815,0,26.862,0c0,20.876,0.588,40.147-19.711,53.141l27.742,44.974v4.09
			h-29.055l-22.481-39.564c-3.507,0.582-6.717,0.582-10.076,0.582v38.982C1317.409,721.704,1308.647,721.704,1299.892,721.704z"/>
		<path style="fill:#FFFFFF;" d="M1453.245,691.187c0-7.157-8.47-8.322-18.688-8.904c-22.19-1.605-36.794-9.202-37.086-31.386
			c-0.874-44.094,78.552-44.094,77.964,0c-9.196,0-15.913,0-24.817,0c0-13.588-27.45-12.411-28.324-0.297
			c-0.582,7.739,7.009,9.344,16.204,10.367c20.293,2.188,40.153,4.815,40.153,30.363c0,42.929-83.224,44.094-82.642-0.868
			c8.762,0,16.358,0,25.263,0C1421.271,703.456,1453.245,703.158,1453.245,691.187z"/>
	</g>
</g>
</svg>
